<svg xmlns="http://www.w3.org/2000/svg" viewBox="0 0 105.71 140.68"><defs><style>.cls-1{fill:#b41917;}.cls-2{fill:#1d1d1b;}</style></defs><title>heartalt2</title><g id="Layer_2" data-name="Layer 2"><path class="cls-1" d="M302.75,511.14a86.67,86.67,0,0,0-39.2,1.15c-1.7.45-2.58,3-1.1,4.18,4.66,3.87,10.16,10.45,16.6,11.14,7.59.81,13.36-4.75,19.91-7.48,2.07-.86,2.65-4.19,0-4.82a89.49,89.49,0,0,0-28.25-2.2c-2.7.22-3.52,4.13-.66,4.91,6,1.65,12,1.61,18.12,1.36l-1.26-4.66-6.07,3.74-3,1.87a2.79,2.79,0,0,0-.95-2.92l-1.49,3.68c1.88-.34,21.83-4.4,22-3.72.84,3.11,5.66,1.79,4.82-1.32-1.08-4-4.35-4-7.91-3.42-6.77,1.12-13.51,2.42-20.26,3.63a2.53,2.53,0,0,0-1.5,3.68c1.45,2.37,2.84,5.89,6.17,5.36,3.55-.57,7.71-4.4,10.73-6.26,2-1.25,1.3-4.76-1.26-4.66-5.69.23-11.26.34-16.79-1.18l-.67,4.91a85.25,85.25,0,0,1,26.92,2v-4.82c-5,2.08-9.5,6-14.82,7.12-6.55,1.39-12.24-5.68-16.83-9.49l-1.1,4.17A80.85,80.85,0,0,1,301.42,516c3.14.63,4.48-4.19,1.33-4.82Z" transform="translate(-234.52 -391.89)"/><path class="cls-1" d="M282.67,526.93c3.26-1,7.09-1.41,8.62-5a4.89,4.89,0,0,0-3.58-6.81,4.11,4.11,0,0,0-3.86,1.56c-.83,1-.86,2.42-1.62,3.42s-2.13,1.43-3.13,2a9.88,9.88,0,0,0-3.29,3c-1.8,2.68,2.53,5.19,4.32,2.52,1.42-2.13,4.61-2.52,6.16-4.73.57-.8,2.22-3.65.22-2.74a14.43,14.43,0,0,1-2.23,1.09c-1,.28-2,.46-2.94.76-3.07.94-1.76,5.77,1.33,4.82Z" transform="translate(-234.52 -391.89)"/><path class="cls-1" d="M263,517.46a178.76,178.76,0,0,1,31.49-7.22c3.92-.49,8-.3,11.68-2,3.84-1.8,6.84-4.85,9.44-8.11a2.54,2.54,0,0,0-1.1-4.18c-2.45-.85-6.46-.39-6,3.18s4.48,2.94,6.57,1.39a2.54,2.54,0,0,0-.6-4.57c-7.1-2.54-13.65,2-20.75,2.68-3.63.35-7.24,1-10.86,1.32a12.57,12.57,0,0,1-6.32-.61c-1.46-.65-2.6-1.82-4.12-2.41-3.54-1.38-8.73-.52-12.34.42-3.83,1-6.1,3.2-5.54,7.33.52,3.85,3.06,8.69,7,9.93,2.65.83,5.15-.27,7.47-1.47a39.84,39.84,0,0,1,9.88-3.77c3.44-.77,22.52-4.05,21,2.16-.65,2.64,3.29,4.57,4.57,1.93l5.77-11.89-4.57-1.93c-1.11,4.37-4.78,6.64-8.42,8.84l3.42,3.42,4.19-7a2.53,2.53,0,0,0-2.82-3.67l-16.77,5.43c-2.59.83-2.27,5,.67,4.91l8.6-.29-.66-4.91c-5.19.89-11.42,2-15.83-1.62-2.54-2.06-4.37-5-7.58-6.13-5.18-1.86-11.1,2.21-10,7.91.88,4.64,7.05,7.62,10.1,3,1.46-2.24.69-4.46-1.29-6.09a15.46,15.46,0,0,0-3.63-1.83c-2.27-1.06-4.1-2.72-6.23-4-1.8-1.09-3.53.38-3.77,2.16-.92,6.9,15.05,7.53,19.21,8.34,3.14.62,4.49-4.2,1.33-4.82-2.1-.41-15.68-2.43-15.54-3.52l-3.76,2.16c1.76,1.07,7,5.69,8.68,4.7a3,3,0,0,0-.26-1.55l1.8-1.82c1.13-.34,2.46.55,3.32,1.13a35.61,35.61,0,0,1,3.69,3.58c5.89,5.44,13.74,4.55,21.1,3.29,2.79-.48,2.12-5-.67-4.91l-8.6.29.66,4.91,16.77-5.43-2.83-3.67-4.18,7a2.52,2.52,0,0,0,3.42,3.42c4.79-2.9,9.26-6.13,10.72-11.83.67-2.64-3.3-4.55-4.57-1.92l-5.77,11.88,4.57,1.93c3.91-15.71-26.89-9.1-33.68-6.3-2.62,1.08-6.4,4.52-9.13,2.51a8.06,8.06,0,0,1-2.15-3.91c-.26-2-.11-2.25,1.66-3a18.35,18.35,0,0,1,6.44-.81c3.07,0,4.64,1.73,7.3,2.84,5.42,2.23,12.19,0,17.76-.5a49.6,49.6,0,0,0,7.86-1.12c4.39-1.13,7.65-3.5,12.37-1.81l-.6-4.57.6,4.57-1.1-4.18c-3.21,4-6.64,7.38-11.95,8.07-4,.51-7.91.83-11.85,1.47a188.84,188.84,0,0,0-26.61,6.52c-3.06,1-1.75,5.79,1.33,4.82Z" transform="translate(-234.52 -391.89)"/><path class="cls-1" d="M315.11,491.84c-7.14-1.47-12.86,1.45-19.43,3.76-4,1.43-7.53,2-11.72.92-3.72-.94-7.17-2.57-11-3.19-5.86-.94-15.24-1.27-20.25,2.74-5.27,4.22,1.83,9.43,2.54,14,.5,3.17,5.31,1.82,4.82-1.33-.43-2.82-1.69-4.51-3.06-6.91-.9-1.56-1.37-1.4.2-2.51,1.1-.79,3-.94,4.32-1.16,7.33-1.18,13.45.9,20.33,2.91a23,23,0,0,0,14.45-.45c5.69-1.94,11.23-5.28,17.45-4,3.14.64,4.48-4.18,1.33-4.82Z" transform="translate(-234.52 -391.89)"/><path class="cls-1" d="M266,507.52a3.69,3.69,0,0,1-3.25-3.52c-.06-3.21-5.06-3.22-5,0a8.74,8.74,0,0,0,8.25,8.52,2.5,2.5,0,0,0,0-5Z" transform="translate(-234.52 -391.89)"/></g><g id="Layer_1" data-name="Layer 1"><path class="cls-2" d="M281.52,527.55c-6.6-.52-12.4-7.53-16.59-12.16a94.29,94.29,0,0,1-11.33-15.46,102.14,102.14,0,0,1-12.69-35.19A96.22,96.22,0,0,1,242.37,426c3-12.11,9.5-28.87,24.46-28.89,9,0,12.73,7.39,14.38,15.16,1.81,8.59,3.11,17.32,4.64,26,.51,2.88,4.8,2,4.91-.67.66-15.32,11-31.48,26.41-35.67,3.62-1,8-1.35,11.3.73,4.82,3,5.52,10.37,6,15.47a184.32,184.32,0,0,1,.59,26.48c-.4,9.49-2.14,18.64-6.22,27.25-3.87,8.14-9,15.71-13.68,23.37-8.74,14.15-17.1,28.17-34.34,32.49-3.12.78-1.8,5.61,1.33,4.82,14-3.52,23.91-13.26,31.42-25.22,9-14.38,20.31-29.29,24.34-46,2-8.41,2.36-17.12,2.26-25.73s0-17.72-2.12-26.19c-3.65-14.48-17.75-15.62-29.38-9.29-13.66,7.44-22.29,22.11-22.95,37.52l4.91-.66c-1.65-9.33-2.79-18.92-5.12-28.1-1.61-6.34-4.74-12.34-10.95-15.12-14-6.29-27.1,5.5-32.49,17.55-12.33,27.51-8.92,61.2,5,87.42a101.19,101.19,0,0,0,14.75,20.86c5.25,5.7,11.49,12.43,19.64,13.08,3.21.26,3.2-4.74,0-5Z" transform="translate(-234.52 -391.89)"/></g></svg>