<svg xmlns="http://www.w3.org/2000/svg" viewBox="0 0 105.71 140.68"><defs><style>.cls-1{fill:#b41917;}.cls-2{fill:#1d1d1b;}</style></defs><title>heartalt3</title><g id="Layer_2" data-name="Layer 2"><path class="cls-1" d="M302.75,511.14a86.67,86.67,0,0,0-39.2,1.15c-1.7.45-2.58,3-1.1,4.18,4.66,3.87,10.16,10.45,16.6,11.14,7.59.81,13.36-4.75,19.91-7.48,2.07-.86,2.65-4.19,0-4.82a89.49,89.49,0,0,0-28.25-2.2c-2.7.22-3.52,4.13-.66,4.91,6,1.65,12,1.61,18.12,1.36l-1.26-4.66-6.07,3.74-3,1.87a2.79,2.79,0,0,0-.95-2.92l-1.49,3.68c1.88-.34,21.83-4.4,22-3.72.84,3.11,5.66,1.79,4.82-1.32-1.08-4-4.35-4-7.91-3.42-6.77,1.12-13.51,2.42-20.26,3.63a2.53,2.53,0,0,0-1.5,3.68c1.45,2.37,2.84,5.89,6.17,5.36,3.55-.57,7.71-4.4,10.73-6.26,2-1.25,1.3-4.76-1.26-4.66-5.69.23-11.26.34-16.79-1.18l-.67,4.91a85.25,85.25,0,0,1,26.92,2v-4.82c-5,2.08-9.5,6-14.82,7.12-6.55,1.39-12.24-5.68-16.83-9.49l-1.1,4.17A80.85,80.85,0,0,1,301.42,516c3.14.63,4.48-4.19,1.33-4.82Z" transform="translate(-234.52 -391.89)"/><path class="cls-1" d="M282.67,526.93c3.26-1,7.09-1.41,8.62-5a4.89,4.89,0,0,0-3.58-6.81,4.11,4.11,0,0,0-3.86,1.56c-.83,1-.86,2.42-1.62,3.42s-2.13,1.43-3.13,2a9.88,9.88,0,0,0-3.29,3c-1.8,2.68,2.53,5.19,4.32,2.52,1.42-2.13,4.61-2.52,6.16-4.73.57-.8,2.22-3.65.22-2.74a14.43,14.43,0,0,1-2.23,1.09c-1,.28-2,.46-2.94.76-3.07.94-1.76,5.77,1.33,4.82Z" transform="translate(-234.52 -391.89)"/><path class="cls-1" d="M263,517.46a178.76,178.76,0,0,1,31.49-7.22c3.92-.49,8-.3,11.68-2,3.84-1.8,6.84-4.85,9.44-8.11a2.54,2.54,0,0,0-1.1-4.18c-2.45-.85-6.46-.39-6,3.18s4.48,2.94,6.57,1.39a2.54,2.54,0,0,0-.6-4.57c-7.1-2.54-13.65,2-20.75,2.68-3.63.35-7.24,1-10.86,1.32a12.57,12.57,0,0,1-6.32-.61c-1.46-.65-2.6-1.82-4.12-2.41-3.54-1.38-8.73-.52-12.34.42-3.83,1-6.1,3.2-5.54,7.33.52,3.85,3.06,8.69,7,9.93,2.65.83,5.15-.27,7.47-1.47a39.84,39.84,0,0,1,9.88-3.77c3.44-.77,22.52-4.05,21,2.16-.65,2.64,3.29,4.57,4.57,1.93l5.77-11.89-4.57-1.93c-1.11,4.37-4.78,6.64-8.42,8.84l3.42,3.42,4.19-7a2.53,2.53,0,0,0-2.82-3.67l-16.77,5.43c-2.59.83-2.27,5,.67,4.91l8.6-.29-.66-4.91c-5.19.89-11.42,2-15.83-1.62-2.54-2.06-4.37-5-7.58-6.13-5.18-1.86-11.1,2.21-10,7.91.88,4.64,7.05,7.62,10.1,3,1.46-2.24.69-4.46-1.29-6.09a15.46,15.46,0,0,0-3.63-1.83c-2.27-1.06-4.1-2.72-6.23-4-1.8-1.09-3.53.38-3.77,2.16-.92,6.9,15.05,7.53,19.21,8.34,3.14.62,4.49-4.2,1.33-4.82-2.1-.41-15.68-2.43-15.54-3.52l-3.76,2.16c1.76,1.07,7,5.69,8.68,4.7a3,3,0,0,0-.26-1.55l1.8-1.82c1.13-.34,2.46.55,3.32,1.13a35.61,35.61,0,0,1,3.69,3.58c5.89,5.44,13.74,4.55,21.1,3.29,2.79-.48,2.12-5-.67-4.91l-8.6.29.66,4.91,16.77-5.43-2.83-3.67-4.18,7a2.52,2.52,0,0,0,3.42,3.42c4.79-2.9,9.26-6.13,10.72-11.83.67-2.64-3.3-4.55-4.57-1.92l-5.77,11.88,4.57,1.93c3.91-15.71-26.89-9.1-33.68-6.3-2.62,1.08-6.4,4.52-9.13,2.51a8.06,8.06,0,0,1-2.15-3.91c-.26-2-.11-2.25,1.66-3a18.35,18.35,0,0,1,6.44-.81c3.07,0,4.64,1.73,7.3,2.84,5.42,2.23,12.19,0,17.76-.5a49.6,49.6,0,0,0,7.86-1.12c4.39-1.13,7.65-3.5,12.37-1.81l-.6-4.57.6,4.57-1.1-4.18c-3.21,4-6.64,7.38-11.95,8.07-4,.51-7.91.83-11.85,1.47a188.84,188.84,0,0,0-26.61,6.52c-3.06,1-1.75,5.79,1.33,4.82Z" transform="translate(-234.52 -391.89)"/><path class="cls-1" d="M315.11,491.84c-7.14-1.47-12.86,1.45-19.43,3.76-4,1.43-7.53,2-11.72.92-3.72-.94-7.17-2.57-11-3.19-5.86-.94-15.24-1.27-20.25,2.74-5.27,4.22,1.83,9.43,2.54,14,.5,3.17,5.31,1.82,4.82-1.33-.43-2.82-1.69-4.51-3.06-6.91-.9-1.56-1.37-1.4.2-2.51,1.1-.79,3-.94,4.32-1.16,7.33-1.18,13.45.9,20.33,2.91a23,23,0,0,0,14.45-.45c5.69-1.94,11.23-5.28,17.45-4,3.14.64,4.48-4.18,1.33-4.82Z" transform="translate(-234.52 -391.89)"/><path class="cls-1" d="M266,507.52a3.69,3.69,0,0,1-3.25-3.52c-.06-3.21-5.06-3.22-5,0a8.74,8.74,0,0,0,8.25,8.52,2.5,2.5,0,0,0,0-5Z" transform="translate(-234.52 -391.89)"/><path class="cls-1" d="M328.29,468.09c-7.33,3.35-15.58.08-23.26.52-7.91.45-14.84,5.46-22.79,2.39-6.7-2.58-11.82-6.11-19.32-5.32-3.77.39-7.52,1.13-11.26,1.73-3.34.54-8.34.3-11.09,2.59-4.23,3.52-.21,10.52,1.29,14.48,1.92,5.06,3.85,11.44,9.24,13.81,6.28,2.77,13.77-1.11,20.1-2,8.5-1.17,16.93-.35,25.45-.07,13.37.44,31.55-4.37,31.41-21,0-1.49-1.61-3-3.17-2.41a32,32,0,0,1-20.17,1.19l1.11,4.18a12.84,12.84,0,0,1,11.5-3.85l-.6-4.57c-8.82,6.73-22.86-3.06-29.84,8.3a2.52,2.52,0,0,0,2.16,3.76,89.69,89.69,0,0,0,9.52-1.19,33.19,33.19,0,0,0,5.23-1.15c4.13-1.52-1.62-.54-2.54-.4-7.21,1.13-14.46,3.54-21.56,5.27a2.52,2.52,0,0,0-1.49,3.68c2,3,5.11,3.31,8.43,2.43,6.37-1.67,12.67-4.86,18.82-7.24l-1.93-4.57a170.68,170.68,0,0,0-19.73,11c-2.69,1.74-.27,6,2.52,4.32l18-10.63-3-3.92L281.09,503a2.51,2.51,0,0,0,3,3.93,64.3,64.3,0,0,0,22.16-18.73c1.25-1.65-.49-3.63-2.16-3.76A32.21,32.21,0,0,0,277,495.71c-1.27,1.49-.58,4.47,1.77,4.27,13.58-1.17,19.16-15.2,30.68-20.41l-3.67-2.83a30.27,30.27,0,0,1-6.06,12.68,2.5,2.5,0,0,0,3.53,3.53,108.06,108.06,0,0,0,11.83-11.41l-3.93-3-6.64,12.81a2.51,2.51,0,0,0,3.93,3l13-12.6c2.07-2-.57-5.3-3-3.93a27.83,27.83,0,0,0-12.55,14.54c-1,2.61,3.39,4.49,4.57,1.93l3.7-8L312,487.54q-1-3.85-4-2.88c-1.07.09-2.15.15-3.23.19a39.39,39.39,0,0,1-5-.06c-5-.45-10-2.45-11.82-7.54-.86-2.47-5.26-2.32-4.91.66l.43,3.61,3.17-2.41a36.43,36.43,0,0,1-15.12-7.31l-3,3.92,7.12,3.63c.65.32,9.23,4.5,7.09,5.89l3,.39a134.94,134.94,0,0,1-12.92-16.08L269.46,473a61.66,61.66,0,0,1,10.12,6.82l-.39-3A112.42,112.42,0,0,0,269,498.16l4.92.66a102.75,102.75,0,0,0-3.07-18.59l-4.18,2.43a20.38,20.38,0,0,1,6.09,9,2.5,2.5,0,0,0,4.82-1.33,140.8,140.8,0,0,0-4.68-20.17c-.95-3.06-5.77-1.76-4.82,1.33q3.36,10.91,7.76,21.43l4.57-1.93A224.2,224.2,0,0,0,268.43,470a2.52,2.52,0,0,0-4.66,1.26,22.47,22.47,0,0,0,1.5,8.68c1,3.14,3.14,8.22-.57,10.61l3.68,1.49-6.73-21.92c-.95-3.06-5.74-1.77-4.83,1.33A45.17,45.17,0,0,1,258.46,489c-.28,2.79,4.36,3.42,4.91.66a64.23,64.23,0,0,0,1.1-17.72h-5l2,18.85,3.77-2.16a18.48,18.48,0,0,1-7.23-11.9c-.53-2.82-4.9-2.09-4.91.67a46.81,46.81,0,0,0,3.6,18.47l4.57-1.92a68.82,68.82,0,0,1-6.22-23c-.24-2.56-4.5-3.67-4.91-.66a30.2,30.2,0,0,0,3.34,19.1c1.12,2.1,4.9,1.25,4.66-1.26a66.36,66.36,0,0,0-2.94-14.36l-3.68,2.82a10.8,10.8,0,0,1,5,10.69l4.91.67-1.86-14.19-4.27,1.77a31.16,31.16,0,0,1,7.14,16.08l4.66-1.26a17.66,17.66,0,0,1-1.84-5.39l-3.67,2.83,5.21,2.24-.89-3.42c-1.53,3.44-5.66,5.62-9.17,3.45s-4-7.65-4.39-11.4c-.48-4.45-2.39-10.3-8.14-8.34a2.57,2.57,0,0,0-1.83,2.41,28.48,28.48,0,0,0,2.92,13.87c1,2.16,4.95,1.19,4.65-1.26l-.64-5.32-4.66,1.27a44.17,44.17,0,0,1,5,14.9c.47,3.17,5.29,1.82,4.82-1.33a47.89,47.89,0,0,0-5.45-16.1c-1.12-2.05-5-1.26-4.66,1.26l.64,5.32,4.66-1.27a23.21,23.21,0,0,1-2.23-11.34l-1.84,2.41c1.15-.39,3.16,11.62,3.62,12.78a12.7,12.7,0,0,0,6.09,7c5.59,2.63,12.53-.27,15-5.79.5-1.12.45-2.85-.89-3.42l-5.22-2.25a2.54,2.54,0,0,0-3.67,2.82,23.17,23.17,0,0,0,2.34,6.58c1.08,2.08,5,1.25,4.66-1.26a37.09,37.09,0,0,0-8.6-19.62c-1.31-1.56-4.55-.36-4.27,1.77l1.86,14.19c.33,2.47,4.48,3.74,4.91.66a16,16,0,0,0-7.25-16.33,2.52,2.52,0,0,0-3.67,2.82,60.36,60.36,0,0,1,2.76,13l4.66-1.26A24.53,24.53,0,0,1,255,471.6l-4.91-.67A75.91,75.91,0,0,0,257,496.47c1.18,2.53,5.66.7,4.57-1.93a43.15,43.15,0,0,1-3.43-17.14l-4.91.66A23.56,23.56,0,0,0,262.73,493a2.51,2.51,0,0,0,3.76-2.16l-2-18.85c-.33-3.14-5.25-3.24-5,0a59.3,59.3,0,0,1-.93,16.39l4.92.67a48.88,48.88,0,0,0-1.81-18.86l-4.83,1.33,6.74,21.92a2.53,2.53,0,0,0,3.67,1.5c9.13-5.91,1.06-15.7,1.54-23.61l-4.66,1.26a225.49,225.49,0,0,1,11.94,20.94c1.24,2.49,5.67.71,4.57-1.92q-4.41-10.53-7.76-21.43L268,471.46a140.8,140.8,0,0,1,4.68,20.17l4.82-1.33a25.32,25.32,0,0,0-7.38-11.17,2.52,2.52,0,0,0-4.17,2.43,95.15,95.15,0,0,1,2.89,17.26,2.51,2.51,0,0,0,4.91.67,105.76,105.76,0,0,1,9.71-20.2,2.51,2.51,0,0,0-.39-3A68.22,68.22,0,0,0,272,468.65c-2.06-1.12-4.9,1.25-3.42,3.42a143.53,143.53,0,0,0,13.7,17.1,2.54,2.54,0,0,0,3,.39c11.35-7.38-9.75-15.89-14.2-18.15-2.38-1.21-5.36,2-3,3.92a41.8,41.8,0,0,0,17.32,8.6c1.41.32,3.36-.71,3.16-2.41l-.43-3.61-4.91.67c3.91,11.12,18.49,13.35,28.74,10.65,2.58-.68,5.22-3.67,2.37-6-4.43-3.65-7,6.14-8.12,8.55l4.57,1.93A22.5,22.5,0,0,1,321,482.14l-3-3.92-13,12.59,3.93,3L315.5,481c1.25-2.4-1.95-5.25-3.93-3a107.14,107.14,0,0,1-11.82,11.42l3.53,3.53a35.52,35.52,0,0,0,7.35-14.88,2.53,2.53,0,0,0-3.67-2.82C296.72,479.88,290.49,494,278.8,495l1.77,4.27a27.53,27.53,0,0,1,23.55-9.78L302,485.71a58.71,58.71,0,0,1-20.36,16.93l3,3.93L304.8,483c1.78-2.07-.46-5.44-3-3.92l-18,10.62,2.52,4.32a169.21,169.21,0,0,1,19.73-11c2.53-1.2.73-5.6-1.92-4.57-2.48,1-20.07,9.48-21.6,7.1l-1.5,3.68,18-4.4c3.49-.85,9.49-1.22,10.88-5.34.79-2.33-.35-5.34-3-5.8-2-.34-5.09,1.21-7,1.64a78.59,78.59,0,0,1-10.81,1.54l2.16,3.77c3.16-5.14,10.32-3.76,15.37-3.51,4.54.23,9-.17,12.68-3,1.48-1.13,1.78-4.18-.6-4.57a18.1,18.1,0,0,0-16.37,5.13,2.53,2.53,0,0,0,1.1,4.18,36.56,36.56,0,0,0,22.83-1.19l-3.16-2.41c.07,8.82-8.14,14.16-16,15.51-8.28,1.41-16.84-.18-25.18-.16-8.19,0-15.41,1.95-23.37,3.33-6.48,1.13-8.72-3.09-10.87-8.42-1.06-2.62-3.91-7.42-3.67-10.2.27-3,8.21-3,11-3.42,4.89-.78,10-2.16,14.94-.88,6.37,1.67,11.43,6.28,18.31,6.2,3.48,0,6.72-1.19,10-2.18a32.52,32.52,0,0,1,12.54-1.3c7,.57,13.48,1.67,20.1-1.36,2.92-1.33.38-5.64-2.53-4.31Z" transform="translate(-234.52 -391.89)"/><path class="cls-1" d="M291.54,483.68a194.14,194.14,0,0,0-25.85-1.31c-2.69,0-3.55,4.51-.66,4.91,5.67.78,9.85,5.28,15.6,6.08,5.59.78,11.45-.81,16.93-1.78,6.52-1.16,13.4-1.82,19.78-3.55,3.72-1,6.9-3.46,6.46-7.64a2.54,2.54,0,0,0-3.17-2.41c-4.16,1.17-5,5.23-7.16,8.54-3,4.73-7.38,8.44-11.4,12.3a71.12,71.12,0,0,0-9.36,10.78c-3.32,4.78-6.23,9.64-10.84,13.31-2.52,2,1,5.52,3.54,3.54,7.49-6,11.29-15.2,18-22,3.24-3.26,6.74-6.24,9.84-9.64a47.07,47.07,0,0,0,4.15-5.18c1.11-1.66,2.54-6.31,4.57-6.88l-3.16-2.41c.44,4.16-24.39,6.73-28,7.34-5,.83-9.58,1.46-14.23-.9-3.42-1.74-6.28-3.84-10.17-4.37l-.67,4.91a194.14,194.14,0,0,1,25.85,1.31c3.19.38,3.16-4.63,0-5Z" transform="translate(-234.52 -391.89)"/></g><g id="Layer_1" data-name="Layer 1"><path class="cls-2" d="M281.52,527.55c-6.6-.52-12.4-7.53-16.59-12.16a94.29,94.29,0,0,1-11.33-15.46,102.14,102.14,0,0,1-12.69-35.19A96.22,96.22,0,0,1,242.37,426c3-12.11,9.5-28.87,24.46-28.89,9,0,12.73,7.39,14.38,15.16,1.81,8.59,3.11,17.32,4.64,26,.51,2.88,4.8,2,4.91-.67.66-15.32,11-31.48,26.41-35.67,3.62-1,8-1.35,11.3.73,4.82,3,5.52,10.37,6,15.47a184.32,184.32,0,0,1,.59,26.48c-.4,9.49-2.14,18.64-6.22,27.25-3.87,8.14-9,15.71-13.68,23.37-8.74,14.15-17.1,28.17-34.34,32.49-3.12.78-1.8,5.61,1.33,4.82,14-3.52,23.91-13.26,31.42-25.22,9-14.38,20.31-29.29,24.34-46,2-8.41,2.36-17.12,2.26-25.73s0-17.72-2.12-26.19c-3.65-14.48-17.75-15.62-29.38-9.29-13.66,7.44-22.29,22.11-22.95,37.52l4.91-.66c-1.65-9.33-2.79-18.92-5.12-28.1-1.61-6.34-4.74-12.34-10.95-15.12-14-6.29-27.1,5.5-32.49,17.55-12.33,27.51-8.92,61.2,5,87.42a101.19,101.19,0,0,0,14.75,20.86c5.25,5.7,11.49,12.43,19.64,13.08,3.21.26,3.2-4.74,0-5Z" transform="translate(-234.52 -391.89)"/></g></svg>