<svg xmlns="http://www.w3.org/2000/svg" viewBox="0 0 201.28 262.32"><defs><style>.cls-1{fill:#b41e17;}.cls-2{fill:#1d1d1b;}</style></defs><title>heart5</title><g id="Layer_3" data-name="Layer 3"><path class="cls-1" d="M268.35,510.32a68,68,0,0,1,10.87-.14c3.27.24,6.63,1.36,9.91,1.23,3-.11,6-1.65,8.91-2.18a39.57,39.57,0,0,1,11.6-.21c3.19.37,3.16-4.64,0-5a43.14,43.14,0,0,0-10.53,0c-3.11.39-6,1.69-9.06,2.18-3.4.54-7.38-.79-10.83-1a69.22,69.22,0,0,0-10.87.14c-3.18.26-3.21,5.27,0,5Z" transform="translate(-198.59 -290.29)"/><path class="cls-1" d="M366.33,501.61c-6.88,1.64-13.08.44-20-.11-6.46-.51-12.91.22-19.32,1-3.16.36-3.2,5.37,0,5,7-.82,14.07-1.52,21.17-.78,6.72.7,12.79,1.33,19.45-.25,3.13-.75,1.8-5.57-1.33-4.83Z" transform="translate(-198.59 -290.29)"/><path class="cls-1" d="M360.75,504.85c-7.05,3.38-16.15-1.14-23.5-1.37-3.9-.12-10.38,1.48-7.74,6.52s9.86,6.76,15,7.75c3.35.64,7.09,1.37,10.5,1.11,4-.31,7.06-3.35,10.16-5.63,1.62-1.19,1.66-4-.6-4.57a14.91,14.91,0,0,0-9.53.68c-5.73,2.14-11.46.44-17.19-1.22v4.82c2.25-.77,4.49-1.6,6.76-2.33,2.76-.89,3.55-.48,6.39.17a29.55,29.55,0,0,0,12.35,0c2.86-.54,2.05-4.81-.66-4.91a187,187,0,0,0-19.09.31c-2.68.18-3.56,4.23-.67,4.91,7.5,1.78,14-2.36,21.36-2.41,3.22,0,3.23-5,0-5-6.72.05-13.38,4.17-20,2.59l-.66,4.91a187,187,0,0,1,19.09-.31l-.67-4.91a23.57,23.57,0,0,1-8.86.16c-1.73-.32-3.44-1.24-5.21-1.33-3.75-.18-7.92,2.09-11.43,3.3a2.52,2.52,0,0,0,0,4.82,61.71,61.71,0,0,0,13.05,2.59c4.94.31,8.79-3.26,13.67-2l-.6-4.57c-1.85,1.36-3.86,3.41-6,4.34-3.11,1.37-7.68.28-10.83-.32-3.33-.64-11.24-1.78-12.23-5.88l-.65,2.43c2.66-3.16,13.46.44,17,.9,4.72.61,8.95.89,13.32-1.21,2.9-1.39.37-5.7-2.52-4.32Z" transform="translate(-198.59 -290.29)"/><path class="cls-1" d="M340.33,506.2a17.49,17.49,0,0,1-5.64-1,2.52,2.52,0,0,0-3.08,1.74,2.56,2.56,0,0,0,1.75,3.08,21.75,21.75,0,0,0,7,1.18c3.22,0,3.22-5,0-5Z" transform="translate(-198.59 -290.29)"/><path class="cls-1" d="M305,507.91c.72,5.88-25.52.78-28.12.15l-.67,4.91q14.07-.29,28.13-1c3.21-.16,3.23-5.16,0-5q-14.06.7-28.13,1c-2.75,0-3.47,4.23-.66,4.91,7.84,1.9,15.56,3.26,23.66,2.49,4.56-.44,11.55-1.26,10.79-7.46-.39-3.15-5.39-3.19-5,0Z" transform="translate(-198.59 -290.29)"/><path class="cls-1" d="M366.93,472c-10.11-.45-19.41,1.42-29.35,2.44-8.77.9-16.29-5.73-25.15-3.25-3.1.86-1.78,5.69,1.33,4.82,8.06-2.26,16.09,4.3,24.49,3.39,9.71-1.05,18.82-2.84,28.68-2.4,3.22.15,3.21-4.85,0-5Z" transform="translate(-198.59 -290.29)"/><path class="cls-1" d="M298,473.07c-4.15,0-8-2.1-12.06-.57-2.37.89-4.11,2.44-6.7,3a21.33,21.33,0,0,1-8.23-.26c-4.48-.85-8.85-2.17-13.44-2.32a34,34,0,0,0-6.83.48c-1.93.33-7.09,2.8-9,1.38-2.56-1.95-5,2.39-2.52,4.32,3.45,2.64,7.36.28,11.06-.54,6.73-1.48,12.79.25,19.35,1.5,4.2.8,8.63,1.2,12.74-.2,2.45-.83,4.17-2.37,6.77-2.62,2.95-.29,5.82.86,8.81.87,3.22,0,3.22-5,0-5Z" transform="translate(-198.59 -290.29)"/><path class="cls-1" d="M299,477.69c-9-4-18,0-27.21.64-9.88.65-20.44-3.36-30,.19-1.57.58-2.7,2.88-1.1,4.17,4.21,3.4,4.57,8.34,7.67,12.43,2.47,3.23,6.12,5.55,9.6,7.54,8.59,4.92,18.11,5.4,27.8,5.92a86,86,0,0,0,15.39-.36c3-.38,8-.44,9.79-3.3,2-3.31-1.65-6.65-3.33-9.15a56.19,56.19,0,0,1-7.13-15.3c-.56-1.87-3.65-2.68-4.57-.6-1.3,3-1,5,.09,8,1.88,5.13,3.52,8.55,1.86,14.11l4.57-.6-9.79-20.35-3.92,3a49.6,49.6,0,0,1,11.87,16.5c1.31,2.94,5.6.39,4.31-2.53l-8-18.16c-.71-1.6-2.84-1.43-3.93-.51-6.05,5.06-4.47,15.61-.82,21.7,3.39,5.64,11.64,7.6,15.53,1.4,1.11-1.78-.41-3.54-2.16-3.76a71.75,71.75,0,0,0-18.17-.08c-3.1.38-3.31,5.09,0,5A14.73,14.73,0,0,0,298,499.12c1.38-1.4.48-4.55-1.77-4.27q-9.26,1.15-18.45,2.8l1.93,4.57,6.42-4.07c1.69-1.07,1.62-4.13-.6-4.57a23.73,23.73,0,0,0-8.77-.12l1.33,4.82a176.85,176.85,0,0,0,18-6.83c2.74-1.21.68-5.08-1.92-4.57l-8.19,1.62,2.82,3.67,2.63-3.64c1-1.4-.12-3.18-1.49-3.67a15.64,15.64,0,0,0-2.9-1c-.88-.12-3.39-.41-3.11,1.56.05.35,1.95,1.51,2.33,1.92a11,11,0,0,1,1.66,2.54,11.35,11.35,0,0,1,1,5.91,7.64,7.64,0,0,1-1,3.4l-1.48-.46,2-.51c1.81.87-.34,5.12-1.49,5.5-.78.26-2.33-.31-3.1-.57a11.07,11.07,0,0,1-3.9-2.34l-1.6-2.49,0-1.33c-1.11-.91-3.69.3-2.46-2.5.41-.91,2.11-1.86,2.9-2.33,1.86-1.12,10.18-3.94,6.41.95a10.12,10.12,0,0,1-7.66,3.88c-3.45.17-8.71-2.54-5.88-6.49.94-1.31,4-2.83,5.77-2.45,3.1.67-.5,4.59-2.22,5.58-1.27.73-6.87,2.08-7.73-.18-.25-.66,3.9-3.86,4.82-4.16s2.65-.42,1.43.64c-.86.75-3,.37-4,.17a9.53,9.53,0,0,1-6.68-5.3l-.9,3.43,3.47,0,1.1-4.18a14.85,14.85,0,0,1-8.34.87l.6,4.57,2-.44-1.26-4.66c-3.62,1.8-7.16,1.18-10.29-1.22l-1.93,4.57a43.36,43.36,0,0,1,8.81,3.13c2.93,1.58,5,3.94,7.41,6.12,3.16,2.85,6.76,4.89,11.13,4.32,2.68-.35,3.53-4,.66-4.91a68.64,68.64,0,0,1-19.93-10.29c-1.34-1-3.26.09-3.68,1.5a5.76,5.76,0,0,0,1.89,6.27,17.73,17.73,0,0,0,3.12,1.76c2.23,1.24,3.67,3,5.6,4.64,5.46,4.53,12.74,4.06,19.35,3.22,2.49-.32,3.73-4.43.66-4.91q-12.57-2-24.93-5v4.82c3-.9,6.06.51,8.68-1.7.89-.74,1-1.51,1.75-2.34,2.22-2.5,3.71-3.25,7.13-3.38,4.52-.18,13.34,1.27,13.75-5.69.34-5.76-5.88-7.45-10.39-6.83-9.09,1.25-19.74,6.5-27.81-.49-2.42-2.09-6,1.43-3.54,3.54a20.47,20.47,0,0,0,12.71,5,38,38,0,0,0,9.26-.9c3.08-.59,7.3-2.54,10.38-2.2q2.49-.82,3.34,2.44l-1.81.26c-1.63.41-4.21-.16-5.89-.11a16.18,16.18,0,0,0-6.73,1.36c-1.83.88-2.71,2.17-4.13,3.49-2.59,2.39-4.83,1.78-8,2.75-2.29.69-2.47,4.22,0,4.82q12.38,3,24.93,5l.67-4.91c-4.52.57-9.85,1.41-14.07-.76-.87-.45-11.22-8.27-11.06-8.8L253,490.45a72.58,72.58,0,0,0,21.13,10.79l.67-4.91c-5.85.76-9-4.93-13.22-8-3.79-2.78-8.33-4.14-12.8-5.41-2.93-.83-4,2.95-1.93,4.57a14.1,14.1,0,0,0,15.34,1.22c2.36-1.18,1-4.53-1.26-4.66a7.4,7.4,0,0,0-4.52,1.12c-1.73,1-1.58,4.18.6,4.57a19.76,19.76,0,0,0,11-.87c1.53-.58,2.74-2.91,1.1-4.18-3-2.32-6.18-2.76-9.52-.82a2.55,2.55,0,0,0-.9,3.42c3,5.76,9.59,9.3,16.05,7.54,4.57-1.24,8.71-7.73,3.53-11.16-4.64-3.08-13.68,3.46-15.81,7.5-2.86,5.42,5.2,8.51,9.31,8.48a12.43,12.43,0,0,0,12.13-11.84c.21-6.75-8.11-5.32-12.35-3.46-5.07,2.22-7.58,7.68-4.52,12.69,3.7,6.07,11.48,5.74,17.21,3.14,4.81-2.19,10.28-8.33,5.47-13.41-4.3-4.54-12.68-.25-16.38,3.13-4.26,3.89-5.49,9.75,1.12,11.5,4.47,1.18,13.26-.55,10.85-7.2-1.86-5.11-9-4.77-11.31-.25-2.93,5.84,2.21,11.33,7.28,13.49s11.7,1.51,12.68-4.87c.77-5.08-2.78-11.9-8.69-10.69-7.41,1.51-5.32,10.44.78,12.33,6.5,2,8.35-6.91,7.76-11.58-.63-5-5.36-13.63-11.54-12.7a3.56,3.56,0,0,0-2.91,4.91c1.29,3.09,6.5,3.86,9.21,4.82L287,486l-2.63,3.64c-1.39,1.92.9,4.05,2.83,3.67l8.19-1.62-1.93-4.57a165.3,165.3,0,0,1-16.77,6.33c-3.13,1-1.8,5.33,1.33,4.82a13.28,13.28,0,0,1,6.11.13l-.6-4.57-6.42,4.06a2.51,2.51,0,0,0,1.93,4.57q8.54-1.53,17.12-2.62l-1.77-4.27a9.52,9.52,0,0,1-7.05,3.07v5a71.75,71.75,0,0,1,18.17.08L303.39,500c-3.66,5.84-8.15-3.94-8.71-6.32-.88-3.69-1.37-8,1.85-10.72l-3.92-.5,8,18.17,4.31-2.53a53,53,0,0,0-12.65-17.51,2.51,2.51,0,0,0-3.92,3l9.79,20.36c1,2,4,1.33,4.57-.6a20.81,20.81,0,0,0,.78-9.4c-.52-3.2-4.5-8.69-3.24-11.55l-4.57-.59a65.82,65.82,0,0,0,3.85,10,58.27,58.27,0,0,0,2.87,5.12c.42.68,3.52,4.26,3.37,4.8-.67,2.45-10.75,2.05-12.71,2.07-3.95.06-7.9-.18-11.83-.49-8.68-.69-16.09-1.73-23.52-6.62-4.43-2.92-6.08-5.84-8.18-10.64a17.59,17.59,0,0,0-5.29-6.85l-1.1,4.18c8.41-3.13,18,.39,26.71.09,8.31-.29,18.73-4.94,26.62-1.42,2.91,1.3,5.46-3,2.52-4.32Z" transform="translate(-198.59 -290.29)"/><path class="cls-1" d="M288.89,479.55a5.3,5.3,0,0,0-6.14.42c-3.17,2.58-1.75,6.82-3.89,9.89a2.52,2.52,0,0,0,1.49,3.67c4.52,1.13,13.15,3.72,15.17,8.33-2-4.48-8.1-4.45-12-5.27a116.31,116.31,0,0,1-17.05-5c-3.3-1.25-7.08-2.35-9.58-4.93-2.18-2.26-2.79-5.62-4.46-8.29a2.58,2.58,0,0,0-3.42-.9,5.38,5.38,0,0,0-3.49,4.48c-.56,3.15,4.26,4.5,4.82,1.33l1.19-1.49-3.42-.89c2.14,3.41,2.67,7.47,5.89,10.17s7.45,3.95,11.15,5.34A115.32,115.32,0,0,0,280.32,501c2.43.55,4.94.82,7.35,1.41s2.94,1.8,4.83,3.42c4,3.41,10,.65,8.45-4.92-1.92-6.86-13.25-10.7-19.27-12.21l1.5,3.67a64.64,64.64,0,0,0,3.19-8.52c2.86,1.44,5.4-2.87,2.52-4.31Z" transform="translate(-198.59 -290.29)"/><path class="cls-1" d="M312.24,478.2a84,84,0,0,0,6.58,16.08c2.09,3.86,4.43,9.18,8.91,10.59a2.53,2.53,0,0,0,3.16-2.42c.3-4.38-1.39-8-3.71-11.64-1.29-2-2.69-3.94-3.85-6-.57-1-4-7.29-3.72-7.55l-3.92-.5a161.07,161.07,0,0,0,11.72,19.87c2,2.95,6.17,11.46,11,9.75,5.48-2,.39-8.11-1.21-10.71l-12.85-20.88-.89,3.42c1.92-1.08,10.35,16.46,11.37,18.33,1.52,2.79,3.88,10.14,8.45,8.37,3.67-1.41,2.51-6.24,1.14-8.86-1.51-2.91-3.72-5.4-5.28-8.29a43,43,0,0,1-3.81-10.17l-2.41,3.16c2.22-.11,5.12,10.94,6.21,13,1.71,3.28,3.85,7.79,6.72,10.23,1.63,1.38,4.08,2,5.81.34,2.13-2,1.2-6.07.32-8.33-1.52-3.85-4.5-7-6.46-10.61a30.79,30.79,0,0,0-1.72-3.66c-.09-1.45-.53-1.71-1.3-.78-1,.31-1,.77-.17,1.38.48,2.21,1.82,4.25,2.17,6.67.91,6.24,1.4,13.28,7.77,16.41a2.54,2.54,0,0,0,3.68-2.83,160.11,160.11,0,0,1-5-24.12l-4.91.66c1.78,6.76,3.83,13.41,6.16,20,.74,2.12,4.33,2.63,4.82,0a59.65,59.65,0,0,1,7.26-19.34c.16-1.72.18-1.44.08.82l0,1.89-.12,5.7c-.06,3,1.11,13.1-4.12,13l2.5,2.5A81.75,81.75,0,0,1,367,479.18l-4.91-.66c-.14,4.48-.35,9-.83,13.44-.13,1.24.08,4.41-.89,5.4C356.71,501,359,494,359.2,492.9c.78-4,4.7-12.65.42-15.75-8.6-6.24-16.91,8-7.94,13.87a2.53,2.53,0,0,0,3.67-1.5,12.64,12.64,0,0,0,0-7.26,2.52,2.52,0,0,0-4.92.66,11.62,11.62,0,0,0,.49,4.19c.75,3,4.58,1.94,4.91-.66l2.36-3c2.85-1.5.32-5.81-2.52-4.32-3.05,1.61-4.41,4-4.84,7.34l4.91-.67-.31-2.86-4.91.67a6,6,0,0,1,0,4.6l3.67-1.49c-5.1-3.36,2-6,2.32-5.69s-1,4.86-1.09,5.28c-.65,3.22-1.34,6.45-1.91,9.69-.65,3.69-.6,8.06,4.08,8.62,10.85,1.31,9.25-20.2,9.44-26.08.09-2.93-4-3.25-4.91-.67a86.07,86.07,0,0,0-4.56,25.78,2.53,2.53,0,0,0,2.5,2.5c5.26.13,8.17-4,8.8-8.89.54-4.21.31-8.63.4-12.88.05-2.5.86-6.12-.47-8.38-2.4-4.05-6.52-1.13-8.49,1.63a50.63,50.63,0,0,0-8.12,20.15H357q-3.48-9.87-6.16-20c-.7-2.64-5.28-2.2-4.91.66a170.8,170.8,0,0,0,5.16,25.45l3.68-2.82c-5.8-2.85-4.64-10.6-5.91-15.93-.76-3.18-3-8.85-7-9.12-4.37-.3-3.88,4.66-2.86,7.33a43.52,43.52,0,0,0,4.4,8.28c1.89,2.87,5.49,6.51,4,10.25l1.74-1.75c-.89.24-4.9-7.32-5.37-8.17a43.21,43.21,0,0,1-3.54-9.51c-1.05-3.71-3.12-6.94-7.39-6.72a2.54,2.54,0,0,0-2.41,3.17,49.2,49.2,0,0,0,3.93,10.63c.51,1,7,10.7,6.32,11.05h2.52c-2.37-1-4.77-7.76-6-10-2-3.71-4-7.42-6.06-11.12-2.23-4.07-5.22-8.43-10.29-5.58a2.55,2.55,0,0,0-.9,3.43l8.41,13.65,3.95,6.42,2,3.21c.45.74,2.89,5.22,2.26.15-.21-1.69-3.82-5.1-4.89-6.64-1.35-1.95-2.65-3.92-3.91-5.93-2.84-4.51-5.42-9.18-7.81-13.94a2.51,2.51,0,0,0-3.92-.51c-3,3.27.12,8,1.74,11.28,2.72,5.58,8.52,10.92,8.07,17.47l3.16-2.41c-3-1-5.71-7.79-7.07-10.51a77.52,77.52,0,0,1-4.92-12.66c-.92-3.07-5.75-1.76-4.82,1.33Z" transform="translate(-198.59 -290.29)"/><path class="cls-1" d="M352,480.47c1.26,0,3.66-.48,4.68.07,1-.3,1.25,0,.86.93a10.34,10.34,0,0,1-.23,1.76,55,55,0,0,1-2.07,8.3A63.51,63.51,0,0,1,347.61,507l3.92-.51a13.91,13.91,0,0,1-5.06-13.68l-4.57.6c-.07-.17-4.17-1.77-4.59-2.06a26.52,26.52,0,0,1-3.24-2.74c-2.07-1.93-4-4-6.14-5.81-3.44-2.84-7.09-4.69-11.61-4.71a2.54,2.54,0,0,0-2.41,3.16c1.67,10.34,10.52,16,19.66,19.39l.67-4.91c-3.26-.22-11.06,1.26-9.09,6.25.75,1.9,2.47,2.27,4.3,2.59,4.42.76,9.11.76,13.58,1.13,3.2.27,3.19-4.73,0-5l-7.76-.65-3.88-.32a3,3,0,0,0,2.85,1c3,.2,3.15-4,.66-4.91-7.62-2.81-14.78-7.29-16.17-15.89l-2.41,3.16c9.27,0,13.6,11,21.57,14.32,4.81,2,10.93-.71,8.33-6.52-.87-1.94-4.17-1.43-4.57.59A18.85,18.85,0,0,0,348,510a2.54,2.54,0,0,0,3.92-.51,66.16,66.16,0,0,0,10.2-25c.43-2.43,1.25-5.57-.69-7.59-2.2-2.29-6.64-1.46-9.44-1.5-3.22-.05-3.22,4.95,0,5Z" transform="translate(-198.59 -290.29)"/><path class="cls-1" d="M296.66,448a69.47,69.47,0,0,0-21.31,2c-3.12.77-1.8,5.6,1.33,4.82a65.23,65.23,0,0,1,20-1.8c3.21.2,3.2-4.8,0-5Z" transform="translate(-198.59 -290.29)"/><path class="cls-1" d="M255.28,453.11a31,31,0,0,1,8.38-.2c3.2.33,3.17-4.68,0-5a35.51,35.51,0,0,0-9.71.38c-3.17.53-1.83,5.35,1.33,4.82Z" transform="translate(-198.59 -290.29)"/><path class="cls-1" d="M290.5,452c.63,6.59,2.43,14.2,1.76,20.79l1.24-2.16c-1.62,1.1-6-.9-7.68-1.27a26.22,26.22,0,0,0-5.64-.76c-4.57,0-7.95,2.91-12.37,3.47a66.33,66.33,0,0,1-15.68-.13c-4.06-.47-8.85-2.49-12.83-.89-2.43,1-2.38,5,.67,4.91,13.43-.36,26.9,5.9,40.24,2.11,4.35-1.23,10.42-3.86,13-7.82a5.39,5.39,0,0,0,.68-4.63c-1-3.86-3.91-5.71-3.07-10.32l-3.67,1.49c3.89,2.55-5.78,8.39-7.43,10.13a2.53,2.53,0,0,0,1.76,4.27,12.88,12.88,0,0,0,8.25-2.3c2-1.33,1.34-4.69-1.26-4.66-4.87.06-9.72.32-14.58.77v5a101,101,0,0,0,23.49-5.64c3-1.11,1.83-5.69-1.33-4.82L269.11,467l1.33,4.82c2.6-1,21.65-6,13.11-11.78-2.84-1.91-6.82,0-9.52,1.27-4.73,2.27-8.95,5.95-14.35,6.48-3.14.31-3.29,5,0,5l21.79.16v-5q-10.85.27-21.71.28c-3.29,0-6.58,0-9.87,0s-7.87.66-10.77-1.35l.51,3.93c1.65-2,5.52-.88,7.65-.8a48.78,48.78,0,0,0,7.64-.3A78.09,78.09,0,0,0,269.6,466c6.39-2,17.43-1.38,17.88-10.25h-5l-.16,5.22c-.1,3.28,4.67,3.14,5,0a6.82,6.82,0,0,0-4.66-7.25c-5.18-1.87-9.69,2.14-14.75,2.4-3.19.16-3.24,5,0,5,4.26,0,8.68-2.16,7.14-7.1l-2.41,3.17a12.88,12.88,0,0,1,3.34.38c1.16.4,1.1.14-.2-.78-1.17-.24-4.37.83-5.57,1.05q-5.56,1-11.16,1.94l3.08,3.08a32.26,32.26,0,0,0,1.14-9.88l-3.77,2.16.44,3.47-2.16,1.13c-1.77.47-3.6-.13-5.26-.71s-3.31-1.67-5.11-2c-4-.74-7.44,2.91-10.46,5-1.69,1.15-1.61,4,.6,4.57a39.09,39.09,0,0,0,14.45.92c2.13-.26,3.33-2.54,1.77-4.27a11.78,11.78,0,0,0-8.82-4c-3-.1-3.1,3.92-.67,4.92a50.36,50.36,0,0,0,13.38,3.37c3.19.37,3.17-4.63,0-5a44.9,44.9,0,0,1-12.05-3.2l-.66,4.91a7.1,7.1,0,0,1,5.29,2.55l1.76-4.27a35.16,35.16,0,0,1-13.12-.74l.6,4.57c2.05-1.4,4.31-3.69,6.8-3.92,1.92-.17,3.51,1,5.32,1.62,3.21,1.09,6.81,1.3,9.86-.41,5-2.79,5.64-9.74.57-12.79a2.52,2.52,0,0,0-3.76,2.16,27.46,27.46,0,0,1-1,8.55,2.54,2.54,0,0,0,3.08,3.08q6.53-1.09,13-2.3c2.67-.49,6.39-.59,7.93-3.25,3.29-5.71-5.12-6.68-8.69-6.87a2.52,2.52,0,0,0-2.41,3.16,2,2,0,0,1-2.32.77v5a20.45,20.45,0,0,0,5.72-1.13c1.65-.55,9.24-4.3,8.69,1h5l.16-5.22c.1-3.23-4.84-3.2-5,0-.19,3.74-10.79,4.36-13.38,5.16a96.27,96.27,0,0,1-12,3.37c-4.76.83-9.18.41-13.92.33-2.8,0-5.21.33-7.09,2.55a2.56,2.56,0,0,0,.51,3.93c5.11,3.54,13.36,2.05,19.21,2.08q12.84,0,25.66-.28c3.22-.07,3.23-5,0-5l-21.79-.16v5c5.19-.51,9.23-2.89,13.68-5.44,1.05-.6,2.1-1.22,3.2-1.73.45-.21,5.06-1.11,2.83-2.54-.94-.6-9,3.41-10.28,3.92-2.95,1.12-1.84,5.69,1.33,4.82l26.94-7.4-1.33-4.82A96.17,96.17,0,0,1,273.89,465c-3.13.38-3.24,5.3,0,5,4.86-.45,9.71-.71,14.58-.77l-1.26-4.66a9.2,9.2,0,0,1-5.73,1.62l1.77,4.26c3.13-3.28,7.94-5.06,9.29-9.76a6.94,6.94,0,0,0-2.87-8.22A2.52,2.52,0,0,0,286,454a15.87,15.87,0,0,0-.19,5.91c.45,2.35,2,3.84,2.64,6,1.55,5-10.71,7.91-14.15,8.27-11.52,1.2-22.79-3.46-34.33-3.15l.66,4.91c3-1.19,7.45.57,10.6,1a77.81,77.81,0,0,0,11.82.56,36.82,36.82,0,0,0,8.63-.94c3.75-1.05,6.47-3.18,10.64-2.65,3.59.46,12,4.66,14.6.25,1.33-2.23.13-5.91-.1-8.31L295.5,452c-.31-3.18-5.31-3.21-5,0Z" transform="translate(-198.59 -290.29)"/><path class="cls-1" d="M284,457.55c.76-1.5,5.55-.31,6.89-.64,1.58-.39.65-.8.68.41s-.11,2.68-.11,4a85,85,0,0,0,1.43,15c.56,3.16,5.38,1.82,4.82-1.33a76.48,76.48,0,0,1-1.24-14.48c0-2.66,1-6.51-1.59-8.35a4.77,4.77,0,0,0-2.94-.63c-1.09,0-2.16.52-3.24.57s-2.06-.35-3.08-.34c-2.53,0-4.77.94-5.94,3.25-1.45,2.86,2.86,5.4,4.32,2.52Z" transform="translate(-198.59 -290.29)"/><path class="cls-1" d="M319.3,455.65c-.47.21-.78-.17-.2.21a5.61,5.61,0,0,0,.54.29,11.11,11.11,0,0,0,1.82.84,4.44,4.44,0,0,0,3.87-.45,2.58,2.58,0,0,0,.9-3.42,2.53,2.53,0,0,0-3.42-.9c.13-.1.16.09-.19-.12a13.26,13.26,0,0,0-1.59-.82,5,5,0,0,0-4.26.05,2.52,2.52,0,0,0-.89,3.42,2.55,2.55,0,0,0,3.42.9Z" transform="translate(-198.59 -290.29)"/><path class="cls-1" d="M340.91,454.42a8.54,8.54,0,0,0,4.09,2,2.56,2.56,0,0,0,3.07-1.75,2.52,2.52,0,0,0-1.74-3.07,6.6,6.6,0,0,1-.77-.17c-.08,0-.73-.3-.43-.14s-.34-.2-.4-.24l-.33-.21c.25.19.26.2.05,0a2.55,2.55,0,0,0-3.54,0,2.52,2.52,0,0,0,0,3.53Z" transform="translate(-198.59 -290.29)"/><path class="cls-1" d="M310.31,459.13c1.68,4.36-3.22,8.48-.91,12.66,1.33,2.4,4,2.63,6.5,2.33,4.09-.49,8.05-2.25,12-3.24A66.18,66.18,0,0,1,348.24,469v-5l-34.34-1.32a2.53,2.53,0,0,0-2.5,2.5c0,5.9,5.61,5.2,9.81,4.44s7.76.26,11.83.37c.37,0,1.61.62,1.89.46,2.36-1.29-2.64-1-2.18-1-1.45-.13-3,.16-4.51.1-2.91-.13-3.27,4.07-.66,4.91a40,40,0,0,0,30.73-2.53l-3.67-2.83-1.52,3.62a2.49,2.49,0,0,0,1.15,2.82,10.14,10.14,0,0,0,3.67,1c1.23.08,3.57-.84,4.65-.13,2.74,1.82,1.62,9.89,1.35,12.63-.31,3.2,4.69,3.18,5,0,.48-4.84.57-10.1-1.73-14.54-2.69-5.19-6.15-1.42-10.41-3.29l1.14,2.83,1.52-3.62c.92-2.19-1.95-3.69-3.67-2.82a34.82,34.82,0,0,1-26.88,2l-.67,4.91c3,.13,7.37.33,9.93-1.57,2.22-1.65,2.57-4.37.4-6.22s-6.47-2-9.31-2.37a27.58,27.58,0,0,0-7.7.08c-1,.16-5.16,1.2-5.16.7l-2.5,2.5L348.24,469c3.23.13,3.18-4.78,0-5-9.44-.62-18.62,1-27.62,3.77-1.24.38-2.47.82-3.73,1.11a6.36,6.36,0,0,1-2,.37c-1.41-.16-.64.8-.9-.75s1.5-4.06,1.75-5.7a9.11,9.11,0,0,0-.64-5c-1.15-3-6-1.68-4.82,1.33Z" transform="translate(-198.59 -290.29)"/><path class="cls-1" d="M340.52,462.48c2.16.53,10.43,1.81,11.07,4.18L354,463.5c-11.95-.1-23.74-1.95-35.55-3.53l.66,4.91a68.85,68.85,0,0,1,19.55-.19v-5c-5.76-.29-11.42-1.79-17.21-1.86-2.16,0-5.07-.09-7.11.76-1.37.57-2.55,2.65-4.18.93l-3,3.92.58.43-1.15-2.82,0,.12,4.18-1.1-.56-.55-.51,3.92a9.24,9.24,0,0,0,4.06-3.44c1.9-2.6-2.43-5.09-4.32-2.52l-2.26,1.65c-1.5.65-1.56,2.9-.51,3.92l.57.55c1.23,1.2,3.86.83,4.17-1.1l0-.12a2.64,2.64,0,0,0-1.15-2.82l-.58-.43c-2.35-1.74-4.92,1.94-3,3.92,3.59,3.77,5.7,1.84,9.62.17,3-1.25,8.16-.27,11.29.15,3.72.5,7.38,1.13,11.13,1.32,3.29.17,3.1-4.6,0-5a73.05,73.05,0,0,0-20.88.37c-3.06.48-1.83,4.57.67,4.91,11.81,1.58,23.6,3.43,35.55,3.53a2.53,2.53,0,0,0,2.41-3.16c-1.51-5.61-9.83-6.52-14.56-7.68-3.12-.77-4.46,4-1.33,4.82Z" transform="translate(-198.59 -290.29)"/><path class="cls-1" d="M361.94,453.34a62,62,0,0,1-14.87,1.55,2.52,2.52,0,0,0-2.16,3.76c2.48,4.1,5.7,9.46,10.71,10.75,6.5,1.66,5.18-5.41,9.88-7.1l-3.16-2.41-.4,11.64,3.76-2.16c-3.93-2.63-5.39-7.51-7.91-11.32l-2.16,3.76,1.41.09c3.21.2,3.2-4.8,0-5l-1.41-.09.66,4.91c.2,0-.77,4.67-.73,5.19a7.88,7.88,0,0,0,2.26,4.54l2.44-4.17c-4.71-.78-6.74-5.17-8.51-9.13l-3.42,3.42c1.54,1,4.49,3.63,3.25,5.35-1.11,1.54-7.24,1.21-9.17,1.4-6.6.66-13.39,1.35-20,.32-2.47-.38-7.3-1-9.15-2.8-2.92-2.83,2.67-5.16,5-5.7,5.48-1.23,11.4.22,16.94.26,3.22,0,3.22-5,0-5-8.24-.07-21.55-3.34-27.21,5.11-5.83,8.69,8.5,12.29,13.9,13.07a73.4,73.4,0,0,0,17,.08c3.17-.28,6.33-.65,9.5-.94,1.9-.17,4.19,0,5.95-.91,6.76-3.39.45-11.9-3.54-14.56-2.29-1.53-4.34,1.36-3.42,3.42,2.33,5.21,5.42,10.42,11.5,11.43a2.52,2.52,0,0,0,2.43-4.18c-2.14-2.57,2.27-6,.35-9.2-1.45-2.37-4.38-2.17-6.74-1.82-2.93.44-2,4.75.66,4.91l1.41.09c3.21.2,3.2-4.8,0-5l-1.41-.09a2.52,2.52,0,0,0-2.16,3.76c3.12,4.7,4.84,9.87,9.71,13.12,1.64,1.1,3.7-.38,3.76-2.16l.4-11.64a2.51,2.51,0,0,0-3.17-2.41,11.12,11.12,0,0,0-3.78,2c-1.26,1.12-1.5,2.78-2.56,3.9-1.5,1.58-2.52.61-4.19-1.07a31.78,31.78,0,0,1-4.41-6.19l-2.16,3.76a68.42,68.42,0,0,0,16.2-1.72c3.14-.72,1.81-5.54-1.33-4.83Z" transform="translate(-198.59 -290.29)"/><path class="cls-1" d="M358.22,426.28c-4.82,1.4-9.54.38-14.45.52a45.66,45.66,0,0,0-12.42,2.53c-3.06,1-1.75,5.79,1.33,4.82a41.08,41.08,0,0,1,14.7-2.27c4.2.2,8.1.4,12.17-.78,3.08-.9,1.77-5.72-1.33-4.82Z" transform="translate(-198.59 -290.29)"/><path class="cls-1" d="M321.67,431.83H319a2.5,2.5,0,0,0,0,5h2.67a2.5,2.5,0,0,0,0-5Z" transform="translate(-198.59 -290.29)"/><path class="cls-1" d="M301.31,431.68l-15.65,1.75c-3.16.35-3.2,5.36,0,5l15.65-1.75c3.16-.35,3.2-5.35,0-5Z" transform="translate(-198.59 -290.29)"/><path class="cls-1" d="M275.57,433a55.16,55.16,0,0,0-21.43-1.61c-3.72.48-7.36,1.58-11.1,1.88-4.48.37-8.9-.48-13.28-1.31-3.14-.61-4.49,4.21-1.33,4.82,7.19,1.37,13.67,1.89,20.9.51,8.54-1.62,16.47-1.74,24.91.53,3.11.84,4.44-4,1.33-4.82Z" transform="translate(-198.59 -290.29)"/><path class="cls-1" d="M270.29,436.12a135.17,135.17,0,0,0-19.66-2.19c-7.14-.25-14.22.25-21.13-1.95a2.43,2.43,0,0,0-2.43.64,9.94,9.94,0,0,0,.5,13.1c4.21,4.73,11.42,5.27,17.26,6,6.8.91,13.93,1.16,20.25-1.91,4.11-2,9.83-6.44,7.89-11.63a2.54,2.54,0,0,0-3.07-1.74c-2.47.78-4.54,2.81-6.83,3.55-3.06,1-7.6-.41-10.77-.54-6.9-.28-13.89.5-20.05-3.27L231,440.89l14.35-.06,6.7,0h3.82c1.53.61,2.26.22,2.19-1.18A2.5,2.5,0,0,0,259,443q1.65,1.66-1.29.39c-1.26-.25-2.52-.46-3.78-.65-2.12-.32-4.26-.55-6.39-.74-5-.42-10.45.17-15-2.1l-.6,4.57.78-.12c3.17-.47,1.83-5.29-1.33-4.82l-.78.12c-2.11.32-2.42,3.66-.59,4.57,3.8,1.89,7.59,2.21,11.77,2.43,6,.31,11.83,1.76,17.75,2.2,6.7.49,7.27-7.4,2-10.16l.9,3.42c3.14-4.18-2.3-6.31-5.55-6.36-8.6-.13-17.23.07-25.83.1a2.52,2.52,0,0,0-1.26,4.66c6.43,3.93,13.52,3.76,20.81,3.91,3.79.07,7.75,1.43,11.47,1.12,3.5-.29,5.92-3.23,9.22-4.27l-3.08-1.75c1.39,3.7-7.1,6.68-9.31,7.23a32.61,32.61,0,0,1-10.84.35,72.91,72.91,0,0,1-10.38-1.59c-3.38-.84-10.86-4.48-7-9.39l-2.43.64c6.12,1.95,12.35,2,18.72,2.05A132.79,132.79,0,0,1,269,440.94c3.15.57,4.5-4.24,1.33-4.82Z" transform="translate(-198.59 -290.29)"/><path class="cls-1" d="M267.66,441.11l2,.55a2.47,2.47,0,0,0,2.44-.65l1-1.23a2.5,2.5,0,1,0-3.54-3.53l-1,1.23,2.43-.65-2-.54a2.5,2.5,0,1,0-1.33,4.82Z" transform="translate(-198.59 -290.29)"/><path class="cls-1" d="M296.29,440.85c-1.45.16-.44-1.64-2.08-.27a4.6,4.6,0,0,0-1.1,1.81c-.29.76-.13,2.72-.4,3-.63.58-4.85-.1-5.8-.12-2.12,0-4.86.34-6.94-.14l1.74,1.74c-.49-1.18,4.85-4.15,5.63-4.75.05,0,1.63-1.25,1.45-1.3a3.19,3.19,0,0,1-2.08,1,2.82,2.82,0,0,1-1.94-.09l-1.33,4.82c2.71.37,6.25,1.47,8.92.54,2.92-1,5.42-4.4,7.61-6.45,2.35-2.21-1.19-5.74-3.53-3.54-1.5,1.41-3.2,3.62-5,4.67-2,1.15-4.49.26-6.69,0-3.08-.42-4.56,4-1.33,4.82a9.23,9.23,0,0,0,8.88-2.23c1.91-1.93,3-5.57.74-7.7-3.05-2.84-6.88.2-9.48,2s-6.87,4.13-6.92,8,3.69,3.49,6.63,3.55c3.51.07,9.42,1.39,12.55-.52a4.3,4.3,0,0,0,2-3.21c.23-1.44-.06-1.79.77-3.18.37-.63.95-1.08,1.28-1.74,1.32-2.68-.42-6-3.57-5.67s-3.2,5.35,0,5Z" transform="translate(-198.59 -290.29)"/><path class="cls-1" d="M320.66,435.51c-2.43,0-6.06-.78-7.58,1.74-.63,1-.24,2.42-.81,3.33s-2.21,1.36-3,2.3c-1.72,2.08-.79,4.65,1.43,5.87a9.41,9.41,0,0,0,3.71,1,11.73,11.73,0,0,0,2.37-.08l.95-.14c1,.29,1.47,0,1.31-.91l4.57.59c.26.88-.09.59.77.56a4.11,4.11,0,0,0,1.49-.72,4.42,4.42,0,0,0,1.79-2.33c.64-2.07-.4-4.41-1.75-5.95-2.81-3.21-8.52-3.44-9.73,1.38a2.54,2.54,0,0,0,1.15,2.82,3.69,3.69,0,0,0,2.6.61c3.11-.36,3.3-5,0-5a23.09,23.09,0,0,0-7.73,1.23,2.52,2.52,0,0,0,0,4.82,11,11,0,0,0,9.35-1.22c2.72-1.7.21-6-2.53-4.31a6.14,6.14,0,0,1-5.49.71v4.82a18.8,18.8,0,0,1,6.4-1.05v-5l-.08.07,1.15,2.83a1.55,1.55,0,0,1,1.45,1q.21,1.35.6.48c-.23.36-2.11.69-2.59,1a4,4,0,0,0-1.67,4.58,2.53,2.53,0,0,0,4.57.6,4.3,4.3,0,0,0-1.12-5.64c-2.34-1.86-4.87-.47-7.49-.75a2.69,2.69,0,0,1-.93-.17c-.72-.35-.9.09-.52,1.33a7.59,7.59,0,0,0,1.22-.79,7.34,7.34,0,0,0,2.35-2.32c.13-.24,1.08-3,.63-3.18l-.94.81h1a19.53,19.53,0,0,0,3.06,0c3.22,0,3.23-5,0-5Z" transform="translate(-198.59 -290.29)"/><path class="cls-1" d="M319.51,446.6l.33.66a2.52,2.52,0,0,0,3.42.9,2.56,2.56,0,0,0,.9-3.42l-.33-.67a2.54,2.54,0,0,0-3.43-.9,2.58,2.58,0,0,0-.89,3.43Z" transform="translate(-198.59 -290.29)"/><path class="cls-1" d="M346.29,448.48c.46.11-.34-2.11-.67-2.63-.75-1.18-1.92-1.41-2.85-2.35s-1-1.93-1.71-2.89c-1.3-1.89-3.2-3.47-3.27-6l-1.24,2.16c1.46-1.05,5.05-.13,6.94-.84,2.44-.92,4.31-2.91,7-3.09,1.26-.08,3.65-.08,3.52,1.33-.08.88-1.18,1.43-1.7,2.09-1.56,2-1.71,4.28-4,5.69s-7,2.15-5.21,6.15c1.18,2.59,4.56,3.61,7.15,2.62a6.39,6.39,0,0,0,3.19-2.92c1.18-2.05,2.23-4.33,3.31-6.44,1.19-2.34,2.18-7.26-.58-8.91-1.5-.9-3.6-.4-5.22-.29-2.58.16-5.19.2-7.76.49-3.44.38-5.05,2-6.08,5.32-.53,1.7.88,3,2.41,3.16a67.08,67.08,0,0,0,10,.39l-1.77-4.27c-2.91,2.38-8.07,2.77-8.87,6.92a11.51,11.51,0,0,0,2.61,10c2.22,2.34,5.75-1.2,3.54-3.54a5.77,5.77,0,0,1-1.27-4.5c.16-1.67-.81-.71,1.27-1.43a21.05,21.05,0,0,0,6.25-3.9c1.69-1.39.29-4.35-1.76-4.27a67.08,67.08,0,0,1-10-.39l2.42,3.17c.86-2.76,5-1.89,7.46-2.05.79-.05,4.33-.69,4.65-.29-.39-.48-2.78,3.61-2.85,3.73a31.29,31.29,0,0,0-1.4,2.92c-.82,1.89-3.24,4.11-.6,3.39a9.92,9.92,0,0,0,4.72-3.23,17.15,17.15,0,0,0,1.51-2.8c.81-1.5,2-2.31,3.09-3.59a5.49,5.49,0,0,0,1.58-3.84c-.15-3.78-5.15-5.49-8.3-5.68-5-.29-8.44,3.38-13.27,3.64-4,.21-6.63,1.28-5.28,5.71a15.44,15.44,0,0,0,2.6,5.05c1,1.27,1.46,2.67,2.41,3.91.62.82,1.31.94,2,1.66a5.42,5.42,0,0,1,1.42,2.54A4,4,0,0,0,345,453.3c3.14.72,4.47-4.1,1.33-4.82Z" transform="translate(-198.59 -290.29)"/><path class="cls-1" d="M351.12,436.35a1.78,1.78,0,0,1-1.45.69.63.63,0,0,0,0,1.25A3.07,3.07,0,0,0,352.2,437c.48-.65-.6-1.27-1.08-.63Z" transform="translate(-198.59 -290.29)"/><path class="cls-1" d="M357.28,428c1.76-3.52-.29-7.9-1.1-11.54-1-4.4-1.6-8.4-5.25-11.36-6.66-5.38-16.12-6.54-24.3-5.15-2.13.36-1.55,3.65.5,3.68l12.78.23c3.7.06,7.24-.71,9.72,2.29s5,8.36,5.21,12.45c.15,2.9,0,4.66-3.51,5.57-1.55.4-3.68,0-5.31,0-3.28,0-7.49-.72-10.71.14-.58.16-4.37,2.77-3.48,3.15-.19-.08-1.92-9.84-2.2-10.86-.89-3.34-3-11.76,2-11.87,3.22-.07,8.59,2.88,11.71,4,2.58.92,4.39,1.16,5.69,3.95,1,2.15,1.11,5.17,1.33,7.45.32,3.25,0,3.26-3.13,3.54a41.83,41.83,0,0,1-5.48-.28c-1.25-.06-4.35.21-5.49-.28-2.32-1-2.35-3.93-2.82-6-.38-1.64-2.1-6.91-.47-8.15.69-.52,3.49,0,4.22.05,5.22.57,8.74,3.49,9.43,8.87.38,3,.15,3.14-2.26,1.31a33.08,33.08,0,0,1-3.61-3.59,81.68,81.68,0,0,1-8.12-10.24l-.68,2.57c3.19-1.44,8,3.47,8.72,6,.22.73,1.2,3.75.89,4.17-1.7,2.27-3.77-5.83-3.73-5.49-.3-2.32-3.85-2.48-3.75,0,.09,2,.84,9.37-1,10.75l2.27.29L334,422.51a1.9,1.9,0,0,0-3.13.83l-.62,1.92,3.69.49c.09-2.5.24-5,.53-7.49.21-1.81-.31-5.43,1.77-3.2,1.49,1.59.82,1.85.23,3.75-.66,2.09-1.91,5.72.29,7.42,5.33,4.14,7.92-8.11,10.15-9.84l-3.2-1.32a41.06,41.06,0,0,1,.22,7.76l1.38-1.81a23.64,23.64,0,0,1-4.28.23c-2.47-.1-2.87,0-1.85-2s4-4.23,5.6-5.87l-3.14-.83c2.06,4.89,2.85,10.29,8.26,12.05,2.93,1,9,4.07,10.49-.2a1.83,1.83,0,0,0-.48-1.83l-.46-.43c-1.76-1.64-4.41,1-2.65,2.65l.54-2-2.76-.78c-1.26-.35-3.58-.61-4.61-1.29-2.47-1.65-3.61-6.57-4.71-9.18a1.91,1.91,0,0,0-3.14-.83c-2.09,2.2-10.4,8.07-8.5,11.88,1.75,3.53,9.67,2.49,12.68,2.07a1.89,1.89,0,0,0,1.38-1.8,41.06,41.06,0,0,0-.22-7.76,1.91,1.91,0,0,0-3.2-1.33,8.48,8.48,0,0,0-2.71,3.61c-.29.66-1.09,4-1.56,4.26s.4-2.67.4-2.67c.84-3.39,1.8-7.39-1.87-9.52-8.42-4.88-8.19,12.57-8.33,16.33-.08,2.18,3.05,2.47,3.68.5l.61-1.92-3.13.83,1.37,1.07a1.93,1.93,0,0,0,2.27.3c4-2.91,3.08-9.68,2.9-14H334.1c.52,3.95,2.5,7.95,6.48,9.48,2.88,1.1,5.12-.23,4.94-3.34-.23-3.93-1.53-8.93-4.73-11.45-2.74-2.16-7.38-4.13-10.71-2.62a1.87,1.87,0,0,0-.67,2.56,86.65,86.65,0,0,0,9.89,12.22c1.89,1.92,5.8,7.1,9.17,5.81,3-1.15,2.22-5.66,1.87-8.16-.61-4.42-2.75-8.22-6.83-10.26-5.16-2.57-15.81-3.87-15,4.42a64.74,64.74,0,0,0,1.75,8.7c.41,1.66.58,4.61,1.91,5.87a4.29,4.29,0,0,0,2.26,1c3.37.8,7.48.38,11,.55,2.5.13,7.61,1.13,8.89-2.08.76-1.92-.21-5.79-.51-7.87-.34-2.46-.67-5.38-1.93-7.6-2.13-3.78-7.38-4.62-11.11-5.89-3.45-1.17-9.24-4.88-12.73-2.76-3.34,2-3.5,7.89-3.13,11.18a39.27,39.27,0,0,0,1.36,6.15c.93,3.31,1.07,6.69,1.86,10,.52,2.17,1.74,4.19,4.44,3.22,1.83-.66,2.72-3,4.62-3.71,2.79-1,7.55,0,10.61,0,4.43,0,8.67.33,10.32-4.55,1.46-4.35-.09-9.42-2-13.37-1.61-3.4-3.8-8.88-7.95-9.7-3.18-.63-6.88-.17-10.11-.22l-10.95-.2.5,3.69a28,28,0,0,1,18.87,3.08c3.15,1.86,4.62,4.42,5.43,7.94.53,2.33,3.14,9.47,2.12,11.52s2.16,4.06,3.23,1.89Z" transform="translate(-198.59 -290.29)"/><path class="cls-1" d="M333.94,412.39c-1.08-1.4-2.65-3.31-2.59-5.2.07-2.15,2.1-3.77,3.9-4.52,3.54-1.51,8.77.95,12.28,2,2.31.72,3.3-2.9,1-3.61-6-1.84-11.93-4.44-17.41-.23-4.86,3.75-3.85,9-.42,13.43,1.45,1.88,4.71,0,3.24-1.9Z" transform="translate(-198.59 -290.29)"/><path class="cls-1" d="M320.28,433.94a5.56,5.56,0,0,0,.93-3.61,1.92,1.92,0,0,0-1.88-1.87,1.89,1.89,0,0,0-1.87,1.87,5.51,5.51,0,0,1,0,.7c0,.39.09-.19,0,.2,0,0-.19.55,0,.21a4.08,4.08,0,0,1-.36.61,1.89,1.89,0,0,0,.68,2.57,1.92,1.92,0,0,0,2.56-.68Z" transform="translate(-198.59 -290.29)"/><path class="cls-1" d="M299.05,434l-1.28-10.27a1.88,1.88,0,0,0-3.68-.5c-1.14,2.87-5.81,2.87-7.83,4.94a7.26,7.26,0,0,0-2,5.35,1.92,1.92,0,0,0,1.87,1.88,16.21,16.21,0,0,0,9-2.05,1.9,1.9,0,0,0,0-3.24A7.39,7.39,0,0,0,289,429l1.82,3.13c3.08-2.64,9.35-8.74,6.85-13.35-1.16-2.11-2.82-1.74-4.8-2.51-2.76-1.08-4.22-3.85-2.62-6.71,1-1.71,3.13-3.15,4.63-4.37,2.2-1.78,7.1-6.58,10.18-7.11s4.65,2.15,6.16,4.12c2,2.64,1.87,3.73-.12,6.16-4.56,5.55-11.24,6.08-16.52,10.32-1.19.95-.38,2.72.82,3.13,5.61,1.91,11.5,3.05,15.93-1.75,3.27-3.53,9.54-10.58,6.75-15.88a20.06,20.06,0,0,0-2.15-2.45c-.87-1.19-1.4-2.75-2.58-3.69-1.94-1.53-5.16-1.65-7.47-2-5.45-.73-11.45-.28-15.2,4.24-8.8,10.63,4.37,21.93,15.19,20.36,3.33-.49,10-3.25,8.72-7.83s-7.48-.43-9.48,1.39l2.65,2.65c2.5-2.62,5.82-6.19,6.6-9.86s-2.37-5.72-5.29-7.08c-6.19-2.89-14.42-1.85-17.51,5-3.25,7.13,4.34,11.64,10.66,8.83,3.67-1.63,10.37-8,3.87-10.13-3-1-6.56-1.12-8.92,1.23a5.08,5.08,0,0,0-.91,6.59c3.13,4.42,12.9,4.07,13.67-2.08.81-6.49-6.76-8.44-11.55-6.51-6.22,2.5-7.34,10.75.53,11.68,3.07.36,7.33-.46,9.39-2.95,1.91-2.3,3.11-6.62,0-8.21-5.15-2.62-14.81,2.18-9.24,7.92.91.93,2.91.6,3.14-.83.42-2.64,7.92-1.95,10-4.19,1.37-1.49-.45-4.22-2.27-2.94a108.34,108.34,0,0,1-14.46,8.55,1.9,1.9,0,0,0-.67,2.57,8.8,8.8,0,0,0,5.3,3.94,1.89,1.89,0,0,0,2.12-2.75l-1.41-2.07-1.61,2.82,3.48.18c2.42.12,2.41-3.63,0-3.75l-3.48-.18a1.88,1.88,0,0,0-1.62,2.82l1.4,2.07,2.12-2.75L298,412.54l-.67,2.57a107.6,107.6,0,0,0,14.45-8.55l-2.27-2.95c-1.82,2-5.8.52-8.11,1.63-1.88.91-2.51,2.19-2.84,4.22l3.14-.83c1.26-2.66,2.76-3.05,4.48-1.16a4.46,4.46,0,0,1-3.88,3.08l-3.47-3.83q5.61-3.53,4.32,3.86-3.76.18-.4-2a5.84,5.84,0,0,1,1.94-1.86,23,23,0,0,1-2,2.18,4.09,4.09,0,0,1-4.52,1.55c-4.74-.78-3.89-5-.41-7.2a9.33,9.33,0,0,1,7-.9c2.95.66,5.29,2.39,4.95,5.83-.2,2-3.33,4.71-4.59,6a1.87,1.87,0,0,0,2.65,2.65c3.29-3,1.6-1.18-.07-.55a12.81,12.81,0,0,1-4.94.79c-3.74-.11-7.61-1.74-9.65-5a8.07,8.07,0,0,1,2.36-11.1c2.58-1.66,6-1.67,8.91-1.37,3.38.33,5.61.76,7.74,3.27a8,8,0,0,1,1.17,1.46c1.3.76,1.56,1.9.8,3.42a3.33,3.33,0,0,1-.68,3.13c-1.28,2.7-4.13,6.47-6.68,7.89-3.3,1.85-7,.52-10.32-.62l.83,3.13c3.59-2.89,8.57-3.53,12.34-6.35,2.5-1.87,6-5,7-8.13,1.07-3.52-1.77-6.16-3.79-8.73-2.19-2.77-4.32-5.12-8.09-3.91-4.27,1.36-8.3,5-11.75,7.77-2.85,2.28-6.47,4.86-7.07,8.73a8.49,8.49,0,0,0,3.11,7.72c.89.71,3.63,1.09,4.19,1.67,1,1.11-.19,3.91-.79,5a18.55,18.55,0,0,1-4.19,4.39c-1.53,1.31.15,3.47,1.83,3.13l3.24.71v-3.24a12.58,12.58,0,0,1-7.14,1.54L288,433.5c.08-4.18,5.05-3.31,7.15-5a9.92,9.92,0,0,0,2.57-4.29l-3.69-.5L295.3,434c.29,2.37,4,2.39,3.75,0Z" transform="translate(-198.59 -290.29)"/><path class="cls-1" d="M291,432.54h1a1.88,1.88,0,1,0,0-3.75h-1a1.88,1.88,0,0,0,0,3.75Z" transform="translate(-198.59 -290.29)"/><path class="cls-1" d="M276.87,431.27c.72-9.09,4.15-30.63-9.65-32.58-5.85-.83-13.87,1.35-19.19,3.59A27.72,27.72,0,0,0,235.55,413a42.4,42.4,0,0,0-6.47,17.4c-.57,5.62,5.2,5.1,9.44,5.23,8.27.24,16.52-.93,24.64-2.39,5.46-1,12.66-.41,12.07-7.56-.56-6.81-3.7-7.9-9.63-5.83A65.16,65.16,0,0,0,245,431.84c-1.43,1.21.09,3.71,1.82,3.13,6.73-2.23,9.73-8.82,15.59-12.3l-1.89-3.24-15.22,9.06c-2.08,1.24-.25,4.34,1.89,3.24a62.5,62.5,0,0,0,15.05-10.85c1.29-1.25,0-3.78-1.82-3.14a54.92,54.92,0,0,0-9.69,4.56c-2.07,1.24-.2,4.46,1.89,3.24A100.19,100.19,0,0,0,263.71,418c1.51-1.18-.14-3.66-1.83-3.13l-20.34,6.33,1.45,3.42q9.78-4.26,19.27-9.14c1.85-1,.55-4.2-1.45-3.43l-3.35,1.3,1.44,3.43,11.86-6.06a1.89,1.89,0,0,0-.95-3.49A56.53,56.53,0,0,0,253,410.89c-2.21.85-1.3,4.43,1,3.62a61.55,61.55,0,0,0,9.71-4.33c1.52-.85,4.26-2,4.84-4,1.27-4.28-4-4.69-6.56-3.68-6.18,2.4-12.3,7.11-17.51,11.16a24.05,24.05,0,0,0-6,6.34c-1.58,2.61-3,11.58-7.46,9.6l-.95,3.49c8.66.22,17.4.79,26.06.6,5.7-.13,11.3-1.17,15.24-5.61a1.9,1.9,0,0,0-1.33-3.2c-10.47-.62-20.68,4.21-31.1,2.19v3.62c6.2-.87,12.38-1.89,18.52-3.12,2.39-.48,5.91-2.09,8.27-1.78s-.88.66-1.7.9a39.13,39.13,0,0,1-4.56.78c-1.82.31-1.75,3.25,0,3.61a93.38,93.38,0,0,1,11.38,3.11c2.29.78,3.27-2.84,1-3.62a93.19,93.19,0,0,0-11.37-3.1v3.61c3.27-.55,9-.37,10.88-3.76a3.74,3.74,0,0,0-1.86-5.36c-3.54-1.41-9.52,1.29-13,2-6.14,1.23-12.32,2.25-18.52,3.12-1.83.26-1.75,3.28,0,3.62,10.88,2.1,21.24-2.7,32.1-2.06l-1.32-3.2c-4.3,4.83-11,4.61-17,4.47-7.23-.17-14.47-.37-21.7-.56-1.76,0-2.69,2.72-.94,3.5,9.23,4.1,10.77-9.71,15.25-14.17,3.9-3.87,9.12-7,13.8-9.82,1.23-.75,2.48-1.44,3.74-2.14,5.83-3.25,1.94-1,.65-.22a55.65,55.65,0,0,1-9.55,4.37l1,3.62A52.77,52.77,0,0,1,269.81,411l-.95-3.49L257,413.54c-1.86.95-.56,4.2,1.45,3.42l3.35-1.29-1.45-3.43q-9.48,4.89-19.27,9.14c-2,.85-.56,4.06,1.45,3.43l20.34-6.33-1.82-3.13a94.2,94.2,0,0,1-10.33,6.95l1.89,3.24a49.94,49.94,0,0,1,8.8-4.18l-1.83-3.13a58.87,58.87,0,0,1-14.29,10.26l1.89,3.24,15.22-9.06c2.08-1.23.19-4.47-1.89-3.24-5.44,3.23-8.6,9.9-14.69,11.93l1.82,3.13a61.23,61.23,0,0,1,14.82-9.36c2.24-1,7.62-4.21,8.79-.71,1.54,4.63-5.2,4.53-8.13,5.07a130.28,130.28,0,0,1-20.74,2.44c-2.18.05-8.48.94-9.41-1.91-.47-1.45,1.42-5.57,1.94-7,4.12-11.68,12.22-17.77,24.28-19.79,3.92-.66,7.62-1.62,10.79,1.2,2.52,2.23,3.41,5.67,3.8,8.89.73,5.94-.2,12.08-.67,18-.19,2.41,3.56,2.4,3.75,0Z" transform="translate(-198.59 -290.29)"/><path class="cls-1" d="M278.48,422.37c-3.2-2.73.52-12.37-6.6-11.88-5.8.39-6.21,9-5.63,13.11.22,1.63,2.72,1.78,3.42.45a28.33,28.33,0,0,0,3.4-13.67l-3.68.5a47.85,47.85,0,0,1,2.2,13.44l3.68-.5-3.86-21.64c-.37-2.09-3.74-1.59-3.68.5a42.71,42.71,0,0,1-2.88,16.67h3.62l-1.84-10c-.33-1.79-3.28-1.78-3.62,0a39.79,39.79,0,0,0-.62,10.05l3.5-1a18.75,18.75,0,0,1-2.34-11.4c.18-1.87-2.67-2.54-3.49-.95a59.07,59.07,0,0,0-3.57,8.21c-.77,2.28-1.17,8.61-3.39,10l2.82,1.62a39.64,39.64,0,0,1,.86-14.91c.55-2.19-2.19-3.06-3.43-1.44a60.07,60.07,0,0,0-8.94,16.68l3.68.49c-.22-4.25,3.46-7.62,4.35-11.72.36-1.68-1.84-3.35-3.14-1.82l-8.86,10.42a1.88,1.88,0,0,0,2.65,2.66,84.52,84.52,0,0,0,9.77-11l-3.24-1.89a63.62,63.62,0,0,0-6.05,12.48c-.65,1.79,1.88,3.11,3.13,1.82l12.95-13.39a1.87,1.87,0,0,0-2.65-2.65,43.71,43.71,0,0,0-11.2,18.52,1.88,1.88,0,0,0,3.42,1.44l2.69-4.81c.74-1.32,1.89-4.79,3.13-5.62.38-1.1.61-1.06.69.13.53.5,1,1,1.51,1.55a13.37,13.37,0,0,1,3.3,5.84l1.81-2.37c-2.68-.09-5.32-.29-8-.62-1.79-.21-2.22,2.11-1.32,3.2a20.72,20.72,0,0,0,7.39,5.8l.95-3.49c-5.27-.61-20.22-.59-17.7-9.39a1.89,1.89,0,0,0-3.43-1.45l-5.28,8.4,3.43.45a10.75,10.75,0,0,1-.55-6.54,1.89,1.89,0,0,0-3.13-1.82c-1.94,1.7-6.07,6.15-3.92,8.94,1.9,2.48,5.71.55,7-1.48,1-1.54.88-2.74.71-4.45-.4-4,.23-5.5,3.24-8.44,4.84-4.75,11.47-7,18-8.3a1.89,1.89,0,0,0,1.12-2.75c-1.52-2.68-4.56-2.86-6.9-1.05-2,1.55-3.33,4-5.09,5.85a40.3,40.3,0,0,1-8.87,6.71l2.82,1.62c-.31-3.05,4.88-4.45,6.74-5.83a21.77,21.77,0,0,0,4.71-5l-3.42-1.44-3,8.17c-.4,1.09-.74,2.22-1.21,3.27-1.24,2.77-1.81,3.11.4.48,3.7-4.4,7.22-9.09,11.17-13.26,3.12-3.3,6.71-3.41,10.39-.82,2.38,1.68,5.32,4.17,6.21,7.05,1.81,5.83,1.3,16-5.32,18.41-2.26.81-1.28,4.44,1,3.62,5.62-2,8.27-7.11,8.66-12.86.49-7.22-.66-12.62-6.14-17.48-4.34-3.86-9.9-6.59-15.13-2.76-2.66,1.94-4.73,5-6.82,7.53l-9.69,11.51a1.88,1.88,0,0,0-.48,1.83c1.11,2.74,3.88,3.92,6.53,2.17,2-1.32,2.66-4,3.45-6,1.24-3.26,2.42-6.54,3.63-9.81.79-2.14-2.27-3-3.42-1.45-2.76,3.81-6.49,4.64-9.8,7.43a5.7,5.7,0,0,0-2.17,5.3,1.9,1.9,0,0,0,2.82,1.62,45.36,45.36,0,0,0,7.82-5.58c.62-.56,7.44-8.12,7.91-7.28l1.12-2.75c-6.92,1.36-13.87,3.89-19.13,8.76-2.17,2-4.52,4.78-5.45,7.63-.59,1.82-.34,1.95,0,3.55.95,4.16,1,2,3.17.05l-3.13-1.83a14.14,14.14,0,0,0,.55,8.53,1.89,1.89,0,0,0,3.42.45l5.28-8.39-3.43-1.45c-3.55,12.41,13.49,13.24,21.32,14.14,1.83.21,2.57-2.72.94-3.5a18.75,18.75,0,0,1-6.63-5.21l-1.33,3.2c2.66.33,5.31.53,8,.62a1.9,1.9,0,0,0,1.81-2.37c-.86-3.35-4.82-10.85-8.9-11.11-1.52-.1-2.15.88-3,1.89-2.58,3-4.33,7.77-6.26,11.23l3.42,1.44a39.85,39.85,0,0,1,10.24-16.86L257,411.64,244.05,425l3.14,1.82a58.08,58.08,0,0,1,5.67-11.58c1.31-2.09-1.83-3.78-3.24-1.89a77.78,77.78,0,0,1-9.18,10.26l2.65,2.66L252,415.87,248.82,414c-1,4.58-4.73,7.82-4.48,12.72a1.89,1.89,0,0,0,3.69.5,57,57,0,0,1,8.56-15.78L253.16,410a42.17,42.17,0,0,0-1,15.9c.17,1.32,1.49,2.46,2.82,1.62,2.21-1.38,2.8-3.23,3.39-5.68A59.14,59.14,0,0,1,263.3,408l-3.5-.94a22,22,0,0,0,2.85,13.29c.87,1.57,3.62.94,3.49-.94a35.23,35.23,0,0,1,.49-9.05H263l1.84,10c.37,2,3,1.54,3.62,0a45.37,45.37,0,0,0,3-17.67l-3.69.5,3.86,21.64c.38,2.1,3.73,1.58,3.69-.5A51.31,51.31,0,0,0,273,409.88a1.88,1.88,0,0,0-3.68.5,24.11,24.11,0,0,1-2.88,11.78l3.42.45a11.31,11.31,0,0,1,.32-5.51l3-1.47c.58.38.23,4,.34,4.81a6.48,6.48,0,0,0,2.28,4.59c1.82,1.56,4.49-1.08,2.65-2.66Z" transform="translate(-198.59 -290.29)"/><path class="cls-1" d="M295.94,429.4c-.1,0-.57-.41-.24-.12,0,0-.44-.42-.27-.24s.07.1,0,0a1.74,1.74,0,0,1-.15-.26c-.1-.19-.09-.18,0,0a1.4,1.4,0,0,1-.09-.29,1.89,1.89,0,0,0-2.31-1.3,1.92,1.92,0,0,0-1.31,2.3,5.12,5.12,0,0,0,2.5,3.15,1.88,1.88,0,0,0,1.89-3.24Z" transform="translate(-198.59 -290.29)"/><path class="cls-1" d="M292,429.68c.7.36.76,1.35,1,2a5.07,5.07,0,0,0,2.05,2.83,3.26,3.26,0,0,0,4.92-2.5,1.89,1.89,0,0,0-1.87-1.87,1.91,1.91,0,0,0-1.88,1.87.82.82,0,0,1,.48-.79h.06c0-.06.15.13.17.07a4,4,0,0,0-.32-.6c-.13-.31-.2-.65-.31-1a5.22,5.22,0,0,0-2.42-3.28c-2.14-1.1-4,2.14-1.89,3.23Z" transform="translate(-198.59 -290.29)"/><path class="cls-1" d="M271.91,413.53c3.31-.91,3.17-4.25,1-6.36-2.53-2.44-6.71-4.13-9.8-5.66-1.67-.83-4.21-2.72-6.26-2.32-1.37.26-1.61,1.05-2.17,2.17-2.34,4.65-5.24,6-9.51,8.51a42.71,42.71,0,0,0-13,12c-1.43,1.95,1.83,3.82,3.23,1.89a38.07,38.07,0,0,1,10.36-9.84c2.84-1.8,6-3.06,8.59-5.28A12.72,12.72,0,0,0,257,405.5a13.93,13.93,0,0,0,.84-1.74q.31-2.7.86-.2c2.12.46,4.58,2.24,6.47,3.29,1.09.6,4.44,3.42,5.7,3.07-2.32.64-1.33,4.26,1,3.61Z" transform="translate(-198.59 -290.29)"/><path class="cls-1" d="M339.8,433.41a8,8,0,0,1-5.35-.08c-2.28-.81-3.26,2.81-1,3.61a11.46,11.46,0,0,0,7.34.09c2.29-.74,1.31-4.36-1-3.62Z" transform="translate(-198.59 -290.29)"/></g><g id="Layer_2" data-name="Layer 2"><path class="cls-2" d="M266.64,313.43c4.51-2,22.63-9.68,13.41-17.15-3.25-2.63-8.45-.61-11.74.91-4.14,1.92-7.41,5-7.53,9.79-.13,5.55,3.07,10.3,5,15.28,2.6,6.8.13,12.12-2.94,18.23-2.26,4.48-4,8.86-4.2,13.94-.25,6.07,2,11.36,3.09,17.23.57,3.16,5.39,1.82,4.82-1.33-1.57-8.7-4.69-15.88-.75-24.58,2.67-5.92,6.62-11.55,6.29-18.35-.35-7-7.1-13.56-6.28-20.42.41-3.38,3.31-4.82,6.09-5.85a19,19,0,0,1,4.42-1.13c.58,2,0,3.39-1.86,4.18-3.07,2.15-6.91,3.42-10.31,4.94-2.93,1.31-.39,5.62,2.52,4.31Z" transform="translate(-198.59 -290.29)"/><path class="cls-2" d="M278.48,302.67c2.46,3.31,7.15,8.25,11.44,8.87s6.54-2.38,7.26-6.19c.45-2.37.06-5.33,1.48-7.43,2.1-3.13,10.48-3.24,13.33-1.63,6,3.38-.95,12,3.9,16.32a2.54,2.54,0,0,0,4.18-1.1c2-4.77,7.39-15.86,13.95-14.47,3.16.67,6.48,5,7.14,8,.81,3.7-1.54,6.84-2.88,10.07-3.82,9.21-3.72,18,4.14,25.14,2.38,2.15,5.93-1.37,3.53-3.53-3.34-3-6.06-7.77-5.24-12.35a48.14,48.14,0,0,1,4-11.23c2.7-6,1.71-11.7-2.84-16.56-11.31-12.07-22.3,3.23-26.6,13.61l4.18-1.1c-1.14-1,.1-7.11,0-8.44a12.83,12.83,0,0,0-2.56-7.3c-3.26-3.88-10.69-3.14-15.21-2.64-4.89.55-7.92,4.25-8.82,8.95-.3,1.55.23,4.66-.77,5.82-2.14,2.49-8-3.67-9.27-5.32-1.89-2.55-6.24-.06-4.31,2.52Z" transform="translate(-198.59 -290.29)"/><path class="cls-2" d="M345.66,336.79a64.49,64.49,0,0,0-9.14,2.74c-2.91,1.21-5.52,2.92-8.78,2.92-6.26,0-6.76-5.71-11.38-8.65-9.06-5.75-17.72.89-22.34,8.74-2.82,4.77-2.6,9.42-2.6,14.8,0,3.33-.05,6.65.08,10,0,1.13.07,2.25.22,3.37.19,1.54,1.32,3.71,1.36,5.17.13,4.51-3.62,7.14-6.68,9.69-3.95,3.31-7.4,4.18-11,.16C271.17,381,268.2,374.83,266,369c-1.12-3-6-1.69-4.83,1.33,2.89,7.7,9.15,23.7,19.44,23.47,5.51-.13,11.14-5.71,14.63-9.53,5-5.51,1.63-9.6,1.26-16.07-.21-3.61-.11-7.25-.11-10.87,0-3.94-.45-7.87,1.44-11.49,3.79-7.23,12.82-13.57,18.84-4.73,3,4.47,5.27,6.14,11,6.33a15.75,15.75,0,0,0,7.67-1.91A60.55,60.55,0,0,1,347,341.61c3.12-.77,1.8-5.6-1.33-4.82Z" transform="translate(-198.59 -290.29)"/><path class="cls-2" d="M345.34,341.93q10.14,1.47,20.34,2.1c5.53.35,6.4,3.32,6.56,8.16.1,2.72.84,8.66-1.5,10.7s-7.71,2.73-10.62,3.43-6.14,1.1-8.91,2.25c-3.95,1.64-4.39,5.72-4,9.64,1.06,10,11.4,10,16.54,2.81,3.34-4.69,13.21-13.52,18-5.79a15.26,15.26,0,0,1,1.83,6.47c.23,3.09-.17.64-.52-.48l-3.42-11.09c-.95-3.06-5.77-1.75-4.82,1.33,1.44,4.66,2.48,9.72,4.38,14.21.84,2,1.83,3.35,4.1,3.59,6.73.74,5.67-7.1,4.73-11.39-1.29-5.84-5.64-11.28-12.12-10.78s-12.48,5.86-16.13,10.8c-1.37,1.86-4.23,5.1-6.93,2.65-1.38-1.25-1.09-6.23.26-7.39,1.19-1,4.91-1.22,6.39-1.57,2.52-.6,5-1.16,7.52-1.92,6.35-1.93,10.1-4.27,10.17-11.3.05-5.69,1.08-14-4.51-17.71-2.66-1.75-6-1.53-9-1.69-5.7-.31-11.4-1-17.05-1.85-3.15-.45-4.51,4.36-1.33,4.82Z" transform="translate(-198.59 -290.29)"/><path class="cls-2" d="M385.88,384.77c-2.95,3.74-5.64,5.42-9.74,7.65a15.19,15.19,0,0,0-5.21,4.08c-2.93,4.22.7,6.68,4.72,7.34,5.5.9,17.18-1.27,19.07,6,.29,1.11.22,9-1.68,9.77-.91.38-.55-5.15-.4-5.93a36.08,36.08,0,0,1,2.53-7.28c1.27-2.93-3-5.48-4.31-2.53-2.16,5-7.23,17.74.17,21.25,6.08,2.89,8.38-7.82,8.72-11.63.31-3.39.14-7.31-2.64-9.66a23,23,0,0,0-11-4.53,59.21,59.21,0,0,0-6.39-.17c-3.17-.06-5.78.39-2.46-1.6,4.88-2.92,8.55-4.61,12.2-9.22,2-2.5-1.54-6.06-3.54-3.54Z" transform="translate(-198.59 -290.29)"/><path class="cls-2" d="M391.17,420.13l-14.6.21a2.54,2.54,0,0,0-2.5,2.5c-.19,18.26,9.64,34.61,10.89,52.71.65,9.34.74,18.82.8,28.18.07,9.09-.17,18.67-6.81,25.69-13.73,14.51-36.38,9.71-53.67,6.64-9-1.59-17.06-4.69-25.68-7.5a125.58,125.58,0,0,0-27.2-5.47c-1.8-.17-2.62,1.72-2.41,3.16.92,6.45,5,20.38-5,21.4-6.06.62-15.07-1.57-20.28-4.85-7.47-4.72-5.64-11.93-5.18-19.47.4-6.42.84-13.75-.85-20-1.52-5.64-6-10.3-8.84-15.29a142.57,142.57,0,0,1-9-17.42c-5.31-13.21-3.88-27.86,1.62-40.76,1.25-2.93-3.06-5.48-4.32-2.53-6.17,14.48-7.9,30.71-1.77,45.52A141.06,141.06,0,0,0,228.84,496c2.51,3.8,5,6.88,5.5,11.57a89.94,89.94,0,0,1,.2,14.77c-.38,7.33-2.34,14.7,2.89,20.79,4.89,5.68,12.54,7.53,19.59,8.79,6.09,1.09,13.61,1.62,17.41-4.39,4.11-6.49,1.38-15.6.38-22.62l-2.41,3.17a120,120,0,0,1,24.17,4.75c7.51,2.32,14.65,5.56,22.39,7.13,14,2.86,29.29,6.15,43.52,3.33,12.63-2.5,24-10.61,27.06-23.57,1.76-7.38,1.29-15.25,1.08-22.76-.22-8-.12-16.13-.88-24.14-1.62-17.09-10.85-32.7-10.67-50l-2.5,2.5,14.6-.21c3.21,0,3.22-5,0-5Z" transform="translate(-198.59 -290.29)"/><path class="cls-2" d="M233.75,501.83c4.81,6.05,11,10.56,17.18,15,6.57,4.74,13.33,9.07,21.27,11,3.12.78,4.45-4,1.33-4.82-7.51-1.86-13.87-6.06-20.07-10.54-5.88-4.24-11.63-8.54-16.17-14.26-2-2.51-5.52,1-3.54,3.54Z" transform="translate(-198.59 -290.29)"/><path class="cls-2" d="M220.15,425.65a23.08,23.08,0,0,0-6.74-.22c-2,.27-4.75,1.79-6.73,1.29-3.66-.94-2.9-12.28-1.81-12.13l-1.77-.73c1.44,1.12,2,4.27,2.59,5.87a54.86,54.86,0,0,1,2.16,7.74c.63,3.16,5.45,1.82,4.83-1.33a60.32,60.32,0,0,0-2.81-9.48c-.7-1.85-1.29-4.49-2.72-5.94-3.53-3.58-7,1.2-7.77,4.47-1.13,4.63-.93,11.45,3,14.76a7.67,7.67,0,0,0,5.78,1.76c3.77-.35,6.72-1.84,10.67-1.24,3.15.47,4.51-4.34,1.33-4.82Z" transform="translate(-198.59 -290.29)"/><path class="cls-2" d="M205.53,413.74c3.82-.5,12,.13,14.48-3.41,3.15-4.55-3.54-6.44-6.55-7.14-3.57-.82-7.38-1.77-8.8-5.29-1-2.57-.57-3.5.3-6,.61-1.74,1.14-4.07,2.24-5.51,3.14-4.09,2.84-.41,2.24,2.77-.69,3.67-1.74,6.94-4.55,9.58-2.34,2.21,1.2,5.75,3.54,3.54,4.58-4.32,7.52-12.74,6.45-19.05s-7.71-6.37-10.85-1.54-8.24,15.52-3.51,20.78c2.06,2.3,5.61,3.76,8.48,4.75a15.65,15.65,0,0,0,3.92,1l1.58.38-.2-1c-2.32-.47-6.44.89-8.77,1.19-3.14.42-3.18,5.42,0,5Z" transform="translate(-198.59 -290.29)"/><path class="cls-2" d="M211.17,383.93c2.13.39,3.83,1.69,5.89,2.28a23.54,23.54,0,0,0,6.1.41c2.3,0,7-.37,7.33,2.42.27,2-1.33,5.7-1.76,7.65-2.41,10.85-4.19,20.77-10.48,30.16-1.79,2.69,2.54,5.19,4.32,2.53,7.72-11.53,9.68-24.82,12.56-38.17.92-4.31.44-7.23-4.12-8.59a30,30,0,0,0-8.64-1c-3.78,0-6.34-1.88-9.87-2.53-3.14-.58-4.49,4.24-1.33,4.82Z" transform="translate(-198.59 -290.29)"/><path class="cls-2" d="M236,385.64a115,115,0,0,1-.38-12.73c.14-3.14,1-6.21,1.12-9.33.33-6.63-2.74-13.9-4.3-20.29-1.25-5.12-2.42-6.69-8-5.89-6,.87-13.81,2-19.17,5.08-9.12,5.26-6.63,20,1.15,25.5,4.79,3.35,7.49-2.67,8.14-6.51a31.69,31.69,0,0,0-2.47-17.89c-1.25-2.95-5.56-.41-4.31,2.52a26.52,26.52,0,0,1,2.06,13.1c-.37,3.64-1.08,4.69-3.14,1.37a14.61,14.61,0,0,1-2.31-6.31c-.78-9.16,12.08-10.42,18.72-11.62.88-.17,1.77-.31,2.66-.42,1.27-.37,1.8.16,1.62,1.61a27.92,27.92,0,0,1,1.16,4.75c1.06,4.3,2.89,9.05,3.18,13.5.23,3.48-1,7.32-1.15,10.83a117.52,117.52,0,0,0,.38,12.73c.2,3.2,5.2,3.22,5,0Z" transform="translate(-198.59 -290.29)"/><path class="cls-2" d="M210,370c7.68.1,15.31-.54,22.48-3.46,2.94-1.2,1.65-6-1.33-4.83-6.79,2.77-13.87,3.39-21.15,3.29-3.22-.05-3.22,4.95,0,5Z" transform="translate(-198.59 -290.29)"/><path class="cls-2" d="M230.12,341.4c3.75-3,6.28-5.18,11.19-5.59,3.49-.29,8-1,11.06.64,5,2.68,8.39,5.2,14.37,3.44,3.08-.9,1.77-5.72-1.33-4.82-5.26,1.54-7-1.79-11.08-3.75-3.12-1.51-6.87-.74-10.2-.61-3,.12-6.29-.15-9.14,1-3.11,1.26-5.84,4.09-8.41,6.13s1,5.52,3.54,3.54Z" transform="translate(-198.59 -290.29)"/><path class="cls-2" d="M254.13,339c1.58,5.67,1.08,11.69,4.44,16.78,1.77,2.67,6.1.17,4.32-2.52-3.06-4.63-2.49-10.41-3.94-15.59-.86-3.09-5.68-1.78-4.82,1.33Z" transform="translate(-198.59 -290.29)"/><path class="cls-2" d="M298.47,345a91.35,91.35,0,0,0,23.7,2.52c3.21-.08,3.22-5.08,0-5a85.92,85.92,0,0,1-22.37-2.34c-3.13-.74-4.46,4.08-1.33,4.82Z" transform="translate(-198.59 -290.29)"/><path class="cls-2" d="M308.86,511.67c-.46,5.2-20.11,2.65-23.16,2.11-8.12-1.46-15.28-5.31-22.39-9.32-3.13-1.77-6.42-3.39-9.4-5.4-3.85-2.61-5.81-6.15-7.63-10.26a76.36,76.36,0,0,0-5.46-10.41c-2-3.17-3.58-6.37-3.46-10.25.14-4.69,2.83-9.66,8.15-9.95,4.05-.22,7.53,2.79,11.58,2.72,3.55-.07,4.26-3.57,2.9-6.54-2.4-5.27-8.62-5.17-13.53-5.06-4.35.09-9.25.69-13.53-.39-6.84-1.72-8.09-8.09-4.78-13.78a1.88,1.88,0,0,0-3.24-1.89c-2.66,4.58-3.79,10.58-.23,15.05s9.61,4.88,14.83,4.9c3.88,0,8-.63,11.91-.13a5.48,5.48,0,0,1,4.5,2.49c2.42,3.23-.42,1.4-2.49.77a41.33,41.33,0,0,0-5.75-1.73,11.94,11.94,0,0,0-12.35,6.48,17.4,17.4,0,0,0-.55,14c1.09,2.88,2.95,5.26,4.53,7.88,2.09,3.46,3.32,7.32,5.17,10.9,3.28,6.35,8.65,9.18,14.65,12.58,6.25,3.54,12.55,7.29,19.43,9.48A62.45,62.45,0,0,0,303.45,518c4.24-.42,8.73-1.38,9.16-6.32.21-2.4-3.54-2.39-3.75,0Z" transform="translate(-198.59 -290.29)"/><path class="cls-2" d="M227.85,433.29c2.07-4.94,3.71-10.42,6.48-15,2.51-4.15,7.21-7.24,10.88-10.31,7.83-6.57,22.06-16.72,29.35-3.66,5,9.05,3.94,21.77-.05,30.93-3.61,8.3-12.32,14.62-12.46,24.17a1.89,1.89,0,0,0,2.82,1.62,49.83,49.83,0,0,0,15.55-15.51,45.37,45.37,0,0,0,6.1-14.93c.85-3.7,1.92-3.75,5.22-3.92,4-.21,7.09-4,3.3-7-1.45-1.15-3.53-1.26-5.07-2.26a6.78,6.78,0,0,1-2.81-8.65c2-4.32,6.87-8.35,10.82-11,5.39-3.57,10.4-4.07,15.23.67s5,10.1,1.35,15.47c-2.11,3.14-5.62,8.25-9.68,9-2.48.45-4.86-2.22-7.08-.67a4.13,4.13,0,0,0-1.44,3.71,7.67,7.67,0,0,0,1.48,3.46c1.88,3.19,2.83,5.81,2.08,9.45-.82,4-2.85,7.69-3.6,11.76a44.52,44.52,0,0,0-.27,12.47c.84,8.46,2,17.21,6,24.81,1.91,3.64,4.3,7,6.16,10.69,1.15,2.26,2.77,5.33,2.77,7.95,0,2-.91,2.45-1.82,4.2-1.13,2.13,2.11,4,3.23,1.89,1.51-2.87,2.81-3,2.33-6.61-.57-4.29-2.63-8.31-4.76-12-2.24-3.91-4.87-7.66-6.48-11.9-1.84-4.83-2.49-10.08-3.18-15.18-.75-5.62-1.33-11.42,0-17,1.22-5,4-9.68,3.82-15a12,12,0,0,0-1-4.42c-.44-1-4.09-5.59-4.38-5.26s3.12,1.38,3.42,1.43a9.86,9.86,0,0,0,5-.63C313.51,423.7,320.28,414.6,321,408c.74-6.82-4.95-14.1-11.19-16.49-7.65-2.91-15.71,4-20.78,8.93s-9.16,10.39-4.18,17.17a12,12,0,0,0,4.73,3.82c.31.14,1.94.5,2,.74.45,1.24-2.8.55-3.46.65-3.33.46-4.31,3-5.05,5.92-3.06,12.2-9.35,22.22-20.11,29.1l2.82,1.62c.11-7.3,6.67-12.68,10.12-18.63a42.5,42.5,0,0,0,5.24-15.8c1.2-9.23,0-23.28-9-28.68-9.39-5.64-19.62.88-26.95,6.78-4.38,3.52-9.6,7.15-13,11.63-3.76,4.91-5.62,12-8,17.59-.93,2.22,2.7,3.19,3.62,1Z" transform="translate(-198.59 -290.29)"/><path class="cls-2" d="M304.92,465.13c5.54,18.29,13.51,38.74,29.31,50.77,3.21,2.44,6.86,3.09,10.79,3.59,4.38.56,10.28,2,14.52.26,7.07-3,10.38-15.11,11.62-21.85,1.91-10.4-1.23-20-1.31-30.36-.05-6.38-.79-15.63-8.73-17-3.35-.59-5.73,1.11-8.55,2.65-.16.09-2.52,1.57-2.88,1.36-1.3-.76,2.38-3,2.71-3.29a23.85,23.85,0,0,0,4.16-3.87c5.61-6.88,6.54-16.18,5.43-24.69-1.05-8-2.48-18.74-10-23.36-7.17-4.38-17.31-3.68-25.33-3.35-2.4.09-2.42,3.84,0,3.75,6.41-.27,13.85-.74,20,1.31,8.47,2.8,9.95,12,11.25,19.77,1.46,8.74,1.17,19.06-5.61,25.67-2.25,2.19-10.46,6.72-6,11,4.18,4,10.19-4.16,14.48-3.2,5.53,1.23,5.3,9.09,5.32,13.31a69.5,69.5,0,0,0,1,10.87c1.59,9.84,1.45,19.23-2.58,28.52-2.11,4.85-4.71,10.07-10.85,9.72-4.27-.24-9-.5-13.1-1.71-4.75-1.41-8.36-6-11.51-9.59a82.9,82.9,0,0,1-8.72-12.16c-5.35-9.06-8.75-19-11.79-29.06-.7-2.3-4.32-1.32-3.61,1Z" transform="translate(-198.59 -290.29)"/><path class="cls-2" d="M308.23,463c-1.8-6.5,3.48-4.22,6.79-6.27,2.23-1.39,3.59-3.85,4.79-6.09a1.89,1.89,0,0,0-1.12-2.75,27.33,27.33,0,0,0-4.13-.46c-1.83,0-2.71.76-3.46-1.11-.86-2.15,1.7-4.27,3-5.92,3.87-5.08,4.86-10.64,7.3-16.41l-3.43-.45a143.09,143.09,0,0,0,10.19,27l1.62-2.83c-2.05,0-4.3-.28-6.23.5a2,2,0,0,0-1.37,1.81c-.22,3.6,4.57,7.43,7.84,7.83,1.32.16,2.22-.46,3.43-.4,2.3.1,2.94,1.1,4.46,2.52a18.2,18.2,0,0,0,6.76,3.84,1.9,1.9,0,0,0,2.31-2.31c-1-4.55-3.65-8.11-5.91-12.1-2.6-4.57-4.74-9.25-7.53-13.72a63.57,63.57,0,0,1-6.3-14.78c-2-6.81-.64-14,.61-20.84.43-2.36-3.19-3.37-3.62-1-1.09,6-2.21,12.11-1.49,18.22.65,5.43,3.14,10.4,5.09,15.46,1.83,4.74,5.17,8.8,7.39,13.38,2.61,5.38,6.83,10.5,8.14,16.37l2.31-2.31a15.09,15.09,0,0,1-6.07-3.86c-1.09-1.09-1.73-2.24-3.31-2.74-1.13-.35-2.1.07-3.18.07-1.77,0-7.37-.53-7.18-3.64l-1.38,1.81c1.48-.6,3.66-.36,5.23-.37a1.9,1.9,0,0,0,1.62-2.82,137.38,137.38,0,0,1-9.81-26.11c-.38-1.42-2.77-2-3.43-.44-1.83,4.33-2.66,9.1-5,13.18-1.81,3.09-4.78,5.58-6.1,9-.67,1.72-1,3.6.17,5.18,2.21,3,7.49,1.6,10.55,2.08l-1.12-2.75c-1.69,3.14-3.13,4.79-6.76,5.64-1.28.3-2.52.25-3.66,1-2.92,2-2.36,5.65-1.55,8.58.65,2.32,4.27,1.33,3.62-1Z" transform="translate(-198.59 -290.29)"/><path class="cls-2" d="M322.49,414.77c0,.38-.69.67-1,.91a5.29,5.29,0,0,0-1.31,1.59,14.47,14.47,0,0,0-.89,2.2,23.83,23.83,0,0,1-.72,3c-1.08,2.15,2.16,4.05,3.24,1.89.89-1.79.62-4.24,2-5.76,1.23-1.32,2.34-1.75,2.36-3.8,0-2.41-3.72-2.41-3.75,0Z" transform="translate(-198.59 -290.29)"/><path class="cls-2" d="M377.67,421.66c.19-7.1.15-13.15-2.46-19.85-.87-2.22-4.5-1.26-3.62,1,2.47,6.31,2.5,12.18,2.33,18.85-.06,2.41,3.69,2.41,3.75,0Z" transform="translate(-198.59 -290.29)"/><path class="cls-2" d="M371.55,396.42a12.88,12.88,0,0,0-3.34-3.16,22.45,22.45,0,0,1-4.14-4.18,22.22,22.22,0,0,0-8.16-6c-2.19-.94-4.1,2.29-1.89,3.24a19.64,19.64,0,0,1,7.4,5.38,29.14,29.14,0,0,0,2.95,3.33c1.29,1.12,2.94,1.81,3.95,3.24,1.37,2,4.62.09,3.23-1.89Z" transform="translate(-198.59 -290.29)"/><path class="cls-2" d="M351.09,379.71c-3.2-.93-6.39-.45-9.67-.63-2.82-.15-5.41-.64-8,.82-5.66,3.19-7.3,12.53-8.45,18.29-.47,2.35,3.14,3.36,3.61,1,1-4.94,2.37-13.56,7.18-15.86,2.41-1.14,4.36-.5,7-.46s4.94-.24,7.38.47,3.31-2.95,1-3.62Z" transform="translate(-198.59 -290.29)"/><path class="cls-2" d="M337.65,381.48c3.09-4.24,6.94-7.82,12.33-8.68,2.38-.37,1.37-4-1-3.61-6.41,1-10.94,5.4-14.58,10.4-1.42,2,1.83,3.82,3.24,1.89Z" transform="translate(-198.59 -290.29)"/></g></svg>