<svg xmlns="http://www.w3.org/2000/svg" viewBox="0 0 105.71 140.68"><defs><style>.cls-1{fill:#b41917;}.cls-2{fill:#1d1d1b;}</style></defs><title>heartalt1</title><g id="Layer_2" data-name="Layer 2"><path class="cls-1" d="M302.75,511.14a86.67,86.67,0,0,0-39.2,1.15c-1.7.45-2.58,3-1.1,4.18,4.66,3.87,10.16,10.45,16.6,11.14,7.59.81,13.36-4.75,19.91-7.48,2.07-.86,2.65-4.19,0-4.82a89.49,89.49,0,0,0-28.25-2.2c-2.7.22-3.52,4.13-.66,4.91,6,1.65,12,1.61,18.12,1.36l-1.26-4.66-6.07,3.74-3,1.87a2.79,2.79,0,0,0-.95-2.92l-1.49,3.68c1.88-.34,21.83-4.4,22-3.72.84,3.11,5.66,1.79,4.82-1.32-1.08-4-4.35-4-7.91-3.42-6.77,1.12-13.51,2.42-20.26,3.63a2.53,2.53,0,0,0-1.5,3.68c1.45,2.37,2.84,5.89,6.17,5.36,3.55-.57,7.71-4.4,10.73-6.26,2-1.25,1.3-4.76-1.26-4.66-5.69.23-11.26.34-16.79-1.18l-.67,4.91a85.25,85.25,0,0,1,26.92,2v-4.82c-5,2.08-9.5,6-14.82,7.12-6.55,1.39-12.24-5.68-16.83-9.49l-1.1,4.17A80.85,80.85,0,0,1,301.42,516c3.14.63,4.48-4.19,1.33-4.82Z" transform="translate(-234.52 -391.89)"/><path class="cls-1" d="M282.67,526.93c3.26-1,7.09-1.41,8.62-5a4.89,4.89,0,0,0-3.58-6.81,4.11,4.11,0,0,0-3.86,1.56c-.83,1-.86,2.42-1.62,3.42s-2.13,1.43-3.13,2a9.88,9.88,0,0,0-3.29,3c-1.8,2.68,2.53,5.19,4.32,2.52,1.42-2.13,4.61-2.52,6.16-4.73.57-.8,2.22-3.65.22-2.74a14.43,14.43,0,0,1-2.23,1.09c-1,.28-2,.46-2.94.76-3.07.94-1.76,5.77,1.33,4.82Z" transform="translate(-234.52 -391.89)"/></g><g id="Layer_1" data-name="Layer 1"><path class="cls-2" d="M281.52,527.55c-6.6-.52-12.4-7.53-16.59-12.16a94.29,94.29,0,0,1-11.33-15.46,102.14,102.14,0,0,1-12.69-35.19A96.22,96.22,0,0,1,242.37,426c3-12.11,9.5-28.87,24.46-28.89,9,0,12.73,7.39,14.38,15.16,1.81,8.59,3.11,17.32,4.64,26,.51,2.88,4.8,2,4.91-.67.66-15.32,11-31.48,26.41-35.67,3.62-1,8-1.35,11.3.73,4.82,3,5.52,10.37,6,15.47a184.32,184.32,0,0,1,.59,26.48c-.4,9.49-2.14,18.64-6.22,27.25-3.87,8.14-9,15.71-13.68,23.37-8.74,14.15-17.1,28.17-34.34,32.49-3.12.78-1.8,5.61,1.33,4.82,14-3.52,23.91-13.26,31.42-25.22,9-14.38,20.31-29.29,24.34-46,2-8.41,2.36-17.12,2.26-25.73s0-17.72-2.12-26.19c-3.65-14.48-17.75-15.62-29.38-9.29-13.66,7.44-22.29,22.11-22.95,37.52l4.91-.66c-1.65-9.33-2.79-18.92-5.12-28.1-1.61-6.34-4.74-12.34-10.95-15.12-14-6.29-27.1,5.5-32.49,17.55-12.33,27.51-8.92,61.2,5,87.42a101.19,101.19,0,0,0,14.75,20.86c5.25,5.7,11.49,12.43,19.64,13.08,3.21.26,3.2-4.74,0-5Z" transform="translate(-234.52 -391.89)"/></g></svg>