<svg id="Layer_1" data-name="Layer 1" xmlns="http://www.w3.org/2000/svg" viewBox="0 0 105.71 140.68"><defs><style>.cls-1{fill:#1d1d1b;}</style></defs><title>heartalt0</title><path class="cls-1" d="M281.52,527.55c-6.6-.52-12.4-7.53-16.59-12.16a94.29,94.29,0,0,1-11.33-15.46,102.14,102.14,0,0,1-12.69-35.19A96.22,96.22,0,0,1,242.37,426c3-12.11,9.5-28.87,24.46-28.89,9,0,12.73,7.39,14.38,15.16,1.81,8.59,3.11,17.32,4.64,26,.51,2.88,4.8,2,4.91-.67.66-15.32,11-31.48,26.41-35.67,3.62-1,8-1.35,11.3.73,4.82,3,5.52,10.37,6,15.47a184.32,184.32,0,0,1,.59,26.48c-.4,9.49-2.14,18.64-6.22,27.25-3.87,8.14-9,15.71-13.68,23.37-8.74,14.15-17.1,28.17-34.34,32.49-3.12.78-1.8,5.61,1.33,4.82,14-3.52,23.91-13.26,31.42-25.22,9-14.38,20.31-29.29,24.34-46,2-8.41,2.36-17.12,2.26-25.73s0-17.72-2.12-26.19c-3.65-14.48-17.75-15.62-29.38-9.29-13.66,7.44-22.29,22.11-22.95,37.52l4.91-.66c-1.65-9.33-2.79-18.92-5.12-28.1-1.61-6.34-4.74-12.34-10.95-15.12-14-6.29-27.1,5.5-32.49,17.55-12.33,27.51-8.92,61.2,5,87.42a101.19,101.19,0,0,0,14.75,20.86c5.25,5.7,11.49,12.43,19.64,13.08,3.21.26,3.2-4.74,0-5Z" transform="translate(-234.52 -391.89)"/></svg>