<svg xmlns="http://www.w3.org/2000/svg" viewBox="0 0 201.28 262.32"><defs><style>.cls-1{fill:#b41e17;}.cls-2{fill:#1d1d1b;}</style></defs><title>heart1</title><g id="Layer_3" data-name="Layer 3"><path class="cls-1" d="M268.35,510.32a68,68,0,0,1,10.87-.14c3.27.24,6.63,1.36,9.91,1.23,3-.11,6-1.65,8.91-2.18a39.57,39.57,0,0,1,11.6-.21c3.19.37,3.16-4.64,0-5a43.14,43.14,0,0,0-10.53,0c-3.11.39-6,1.69-9.06,2.18-3.4.54-7.38-.79-10.83-1a69.22,69.22,0,0,0-10.87.14c-3.18.26-3.21,5.27,0,5Z" transform="translate(-198.59 -290.29)"/><path class="cls-1" d="M366.33,501.61c-6.88,1.64-13.08.44-20-.11-6.46-.51-12.91.22-19.32,1-3.16.36-3.2,5.37,0,5,7-.82,14.07-1.52,21.17-.78,6.72.7,12.79,1.33,19.45-.25,3.13-.75,1.8-5.57-1.33-4.83Z" transform="translate(-198.59 -290.29)"/><path class="cls-1" d="M360.75,504.85c-7.05,3.38-16.15-1.14-23.5-1.37-3.9-.12-10.38,1.48-7.74,6.52s9.86,6.76,15,7.75c3.35.64,7.09,1.37,10.5,1.11,4-.31,7.06-3.35,10.16-5.63,1.62-1.19,1.66-4-.6-4.57a14.91,14.91,0,0,0-9.53.68c-5.73,2.14-11.46.44-17.19-1.22v4.82c2.25-.77,4.49-1.6,6.76-2.33,2.76-.89,3.55-.48,6.39.17a29.55,29.55,0,0,0,12.35,0c2.86-.54,2.05-4.81-.66-4.91a187,187,0,0,0-19.09.31c-2.68.18-3.56,4.23-.67,4.91,7.5,1.78,14-2.36,21.36-2.41,3.22,0,3.23-5,0-5-6.72.05-13.38,4.17-20,2.59l-.66,4.91a187,187,0,0,1,19.09-.31l-.67-4.91a23.57,23.57,0,0,1-8.86.16c-1.73-.32-3.44-1.24-5.21-1.33-3.75-.18-7.92,2.09-11.43,3.3a2.52,2.52,0,0,0,0,4.82,61.71,61.71,0,0,0,13.05,2.59c4.94.31,8.79-3.26,13.67-2l-.6-4.57c-1.85,1.36-3.86,3.41-6,4.34-3.11,1.37-7.68.28-10.83-.32-3.33-.64-11.24-1.78-12.23-5.88l-.65,2.43c2.66-3.16,13.46.44,17,.9,4.72.61,8.95.89,13.32-1.21,2.9-1.39.37-5.7-2.52-4.32Z" transform="translate(-198.59 -290.29)"/><path class="cls-1" d="M340.33,506.2a17.49,17.49,0,0,1-5.64-1,2.52,2.52,0,0,0-3.08,1.74,2.56,2.56,0,0,0,1.75,3.08,21.75,21.75,0,0,0,7,1.18c3.22,0,3.22-5,0-5Z" transform="translate(-198.59 -290.29)"/><path class="cls-1" d="M305,507.91c.72,5.88-25.52.78-28.12.15l-.67,4.91q14.07-.29,28.13-1c3.21-.16,3.23-5.16,0-5q-14.06.7-28.13,1c-2.75,0-3.47,4.23-.66,4.91,7.84,1.9,15.56,3.26,23.66,2.49,4.56-.44,11.55-1.26,10.79-7.46-.39-3.15-5.39-3.19-5,0Z" transform="translate(-198.59 -290.29)"/></g><g id="Layer_2" data-name="Layer 2"><path class="cls-2" d="M266.64,313.43c4.51-2,22.63-9.68,13.41-17.15-3.25-2.63-8.45-.61-11.74.91-4.14,1.92-7.41,5-7.53,9.79-.13,5.55,3.07,10.3,5,15.28,2.6,6.8.13,12.12-2.94,18.23-2.26,4.48-4,8.86-4.2,13.94-.25,6.07,2,11.36,3.09,17.23.57,3.16,5.39,1.82,4.82-1.33-1.57-8.7-4.69-15.88-.75-24.58,2.67-5.92,6.62-11.55,6.29-18.35-.35-7-7.1-13.56-6.28-20.42.41-3.38,3.31-4.82,6.09-5.85a19,19,0,0,1,4.42-1.13c.58,2,0,3.39-1.86,4.18-3.07,2.15-6.91,3.42-10.31,4.94-2.93,1.31-.39,5.62,2.52,4.31Z" transform="translate(-198.59 -290.29)"/><path class="cls-2" d="M278.48,302.67c2.46,3.31,7.15,8.25,11.44,8.87s6.54-2.38,7.26-6.19c.45-2.37.06-5.33,1.48-7.43,2.1-3.13,10.48-3.24,13.33-1.63,6,3.38-.95,12,3.9,16.32a2.54,2.54,0,0,0,4.18-1.1c2-4.77,7.39-15.86,13.95-14.47,3.16.67,6.48,5,7.14,8,.81,3.7-1.54,6.84-2.88,10.07-3.82,9.21-3.72,18,4.14,25.14,2.38,2.15,5.93-1.37,3.53-3.53-3.34-3-6.06-7.77-5.24-12.35a48.14,48.14,0,0,1,4-11.23c2.7-6,1.71-11.7-2.84-16.56-11.31-12.07-22.3,3.23-26.6,13.61l4.18-1.1c-1.14-1,.1-7.11,0-8.44a12.83,12.83,0,0,0-2.56-7.3c-3.26-3.88-10.69-3.14-15.21-2.64-4.89.55-7.92,4.25-8.82,8.95-.3,1.55.23,4.66-.77,5.82-2.14,2.49-8-3.67-9.27-5.32-1.89-2.55-6.24-.06-4.31,2.52Z" transform="translate(-198.59 -290.29)"/><path class="cls-2" d="M345.66,336.79a64.49,64.49,0,0,0-9.14,2.74c-2.91,1.21-5.52,2.92-8.78,2.92-6.26,0-6.76-5.71-11.38-8.65-9.06-5.75-17.72.89-22.34,8.74-2.82,4.77-2.6,9.42-2.6,14.8,0,3.33-.05,6.65.08,10,0,1.13.07,2.25.22,3.37.19,1.54,1.32,3.71,1.36,5.17.13,4.51-3.62,7.14-6.68,9.69-3.95,3.31-7.4,4.18-11,.16C271.17,381,268.2,374.83,266,369c-1.12-3-6-1.69-4.83,1.33,2.89,7.7,9.15,23.7,19.44,23.47,5.51-.13,11.14-5.71,14.63-9.53,5-5.51,1.63-9.6,1.26-16.07-.21-3.61-.11-7.25-.11-10.87,0-3.94-.45-7.87,1.44-11.49,3.79-7.23,12.82-13.57,18.84-4.73,3,4.47,5.27,6.14,11,6.33a15.75,15.75,0,0,0,7.67-1.91A60.55,60.55,0,0,1,347,341.61c3.12-.77,1.8-5.6-1.33-4.82Z" transform="translate(-198.59 -290.29)"/><path class="cls-2" d="M345.34,341.93q10.14,1.47,20.34,2.1c5.53.35,6.4,3.32,6.56,8.16.1,2.72.84,8.66-1.5,10.7s-7.71,2.73-10.62,3.43-6.14,1.1-8.91,2.25c-3.95,1.64-4.39,5.72-4,9.64,1.06,10,11.4,10,16.54,2.81,3.34-4.69,13.21-13.52,18-5.79a15.26,15.26,0,0,1,1.83,6.47c.23,3.09-.17.64-.52-.48l-3.42-11.09c-.95-3.06-5.77-1.75-4.82,1.33,1.44,4.66,2.48,9.72,4.38,14.21.84,2,1.83,3.35,4.1,3.59,6.73.74,5.67-7.1,4.73-11.39-1.29-5.84-5.64-11.28-12.12-10.78s-12.48,5.86-16.13,10.8c-1.37,1.86-4.23,5.1-6.93,2.65-1.38-1.25-1.09-6.23.26-7.39,1.19-1,4.91-1.22,6.39-1.57,2.52-.6,5-1.16,7.52-1.92,6.35-1.93,10.1-4.27,10.17-11.3.05-5.69,1.08-14-4.51-17.71-2.66-1.75-6-1.53-9-1.69-5.7-.31-11.4-1-17.05-1.85-3.15-.45-4.51,4.36-1.33,4.82Z" transform="translate(-198.59 -290.29)"/><path class="cls-2" d="M385.88,384.77c-2.95,3.74-5.64,5.42-9.74,7.65a15.19,15.19,0,0,0-5.21,4.08c-2.93,4.22.7,6.68,4.72,7.34,5.5.9,17.18-1.27,19.07,6,.29,1.11.22,9-1.68,9.77-.91.38-.55-5.15-.4-5.93a36.08,36.08,0,0,1,2.53-7.28c1.27-2.93-3-5.48-4.31-2.53-2.16,5-7.23,17.74.17,21.25,6.08,2.89,8.38-7.82,8.72-11.63.31-3.39.14-7.31-2.64-9.66a23,23,0,0,0-11-4.53,59.21,59.21,0,0,0-6.39-.17c-3.17-.06-5.78.39-2.46-1.6,4.88-2.92,8.55-4.61,12.2-9.22,2-2.5-1.54-6.06-3.54-3.54Z" transform="translate(-198.59 -290.29)"/><path class="cls-2" d="M391.17,420.13l-14.6.21a2.54,2.54,0,0,0-2.5,2.5c-.19,18.26,9.64,34.61,10.89,52.71.65,9.34.74,18.82.8,28.18.07,9.09-.17,18.67-6.81,25.69-13.73,14.51-36.38,9.71-53.67,6.64-9-1.59-17.06-4.69-25.68-7.5a125.58,125.58,0,0,0-27.2-5.47c-1.8-.17-2.62,1.72-2.41,3.16.92,6.45,5,20.38-5,21.4-6.06.62-15.07-1.57-20.28-4.85-7.47-4.72-5.64-11.93-5.18-19.47.4-6.42.84-13.75-.85-20-1.52-5.64-6-10.3-8.84-15.29a142.57,142.57,0,0,1-9-17.42c-5.31-13.21-3.88-27.86,1.62-40.76,1.25-2.93-3.06-5.48-4.32-2.53-6.17,14.48-7.9,30.71-1.77,45.52A141.06,141.06,0,0,0,228.84,496c2.51,3.8,5,6.88,5.5,11.57a89.94,89.94,0,0,1,.2,14.77c-.38,7.33-2.34,14.7,2.89,20.79,4.89,5.68,12.54,7.53,19.59,8.79,6.09,1.09,13.61,1.62,17.41-4.39,4.11-6.49,1.38-15.6.38-22.62l-2.41,3.17a120,120,0,0,1,24.17,4.75c7.51,2.32,14.65,5.56,22.39,7.13,14,2.86,29.29,6.15,43.52,3.33,12.63-2.5,24-10.61,27.06-23.57,1.76-7.38,1.29-15.25,1.08-22.76-.22-8-.12-16.13-.88-24.14-1.62-17.09-10.85-32.7-10.67-50l-2.5,2.5,14.6-.21c3.21,0,3.22-5,0-5Z" transform="translate(-198.59 -290.29)"/><path class="cls-2" d="M233.75,501.83c4.81,6.05,11,10.56,17.18,15,6.57,4.74,13.33,9.07,21.27,11,3.12.78,4.45-4,1.33-4.82-7.51-1.86-13.87-6.06-20.07-10.54-5.88-4.24-11.63-8.54-16.17-14.26-2-2.51-5.52,1-3.54,3.54Z" transform="translate(-198.59 -290.29)"/><path class="cls-2" d="M220.15,425.65a23.08,23.08,0,0,0-6.74-.22c-2,.27-4.75,1.79-6.73,1.29-3.66-.94-2.9-12.28-1.81-12.13l-1.77-.73c1.44,1.12,2,4.27,2.59,5.87a54.86,54.86,0,0,1,2.16,7.74c.63,3.16,5.45,1.82,4.83-1.33a60.32,60.32,0,0,0-2.81-9.48c-.7-1.85-1.29-4.49-2.72-5.94-3.53-3.58-7,1.2-7.77,4.47-1.13,4.63-.93,11.45,3,14.76a7.67,7.67,0,0,0,5.78,1.76c3.77-.35,6.72-1.84,10.67-1.24,3.15.47,4.51-4.34,1.33-4.82Z" transform="translate(-198.59 -290.29)"/><path class="cls-2" d="M205.53,413.74c3.82-.5,12,.13,14.48-3.41,3.15-4.55-3.54-6.44-6.55-7.14-3.57-.82-7.38-1.77-8.8-5.29-1-2.57-.57-3.5.3-6,.61-1.74,1.14-4.07,2.24-5.51,3.14-4.09,2.84-.41,2.24,2.77-.69,3.67-1.74,6.94-4.55,9.58-2.34,2.21,1.2,5.75,3.54,3.54,4.58-4.32,7.52-12.74,6.45-19.05s-7.71-6.37-10.85-1.54-8.24,15.52-3.51,20.78c2.06,2.3,5.61,3.76,8.48,4.75a15.65,15.65,0,0,0,3.92,1l1.58.38-.2-1c-2.32-.47-6.44.89-8.77,1.19-3.14.42-3.18,5.42,0,5Z" transform="translate(-198.59 -290.29)"/><path class="cls-2" d="M211.17,383.93c2.13.39,3.83,1.69,5.89,2.28a23.54,23.54,0,0,0,6.1.41c2.3,0,7-.37,7.33,2.42.27,2-1.33,5.7-1.76,7.65-2.41,10.85-4.19,20.77-10.48,30.16-1.79,2.69,2.54,5.19,4.32,2.53,7.72-11.53,9.68-24.82,12.56-38.17.92-4.31.44-7.23-4.12-8.59a30,30,0,0,0-8.64-1c-3.78,0-6.34-1.88-9.87-2.53-3.14-.58-4.49,4.24-1.33,4.82Z" transform="translate(-198.59 -290.29)"/><path class="cls-2" d="M236,385.64a115,115,0,0,1-.38-12.73c.14-3.14,1-6.21,1.12-9.33.33-6.63-2.74-13.9-4.3-20.29-1.25-5.12-2.42-6.69-8-5.89-6,.87-13.81,2-19.17,5.08-9.12,5.26-6.63,20,1.15,25.5,4.79,3.35,7.49-2.67,8.14-6.51a31.69,31.69,0,0,0-2.47-17.89c-1.25-2.95-5.56-.41-4.31,2.52a26.52,26.52,0,0,1,2.06,13.1c-.37,3.64-1.08,4.69-3.14,1.37a14.61,14.61,0,0,1-2.31-6.31c-.78-9.16,12.08-10.42,18.72-11.62.88-.17,1.77-.31,2.66-.42,1.27-.37,1.8.16,1.62,1.61a27.92,27.92,0,0,1,1.16,4.75c1.06,4.3,2.89,9.05,3.18,13.5.23,3.48-1,7.32-1.15,10.83a117.52,117.52,0,0,0,.38,12.73c.2,3.2,5.2,3.22,5,0Z" transform="translate(-198.59 -290.29)"/><path class="cls-2" d="M210,370c7.68.1,15.31-.54,22.48-3.46,2.94-1.2,1.65-6-1.33-4.83-6.79,2.77-13.87,3.39-21.15,3.29-3.22-.05-3.22,4.95,0,5Z" transform="translate(-198.59 -290.29)"/><path class="cls-2" d="M230.12,341.4c3.75-3,6.28-5.18,11.19-5.59,3.49-.29,8-1,11.06.64,5,2.68,8.39,5.2,14.37,3.44,3.08-.9,1.77-5.72-1.33-4.82-5.26,1.54-7-1.79-11.08-3.75-3.12-1.51-6.87-.74-10.2-.61-3,.12-6.29-.15-9.14,1-3.11,1.26-5.84,4.09-8.41,6.13s1,5.52,3.54,3.54Z" transform="translate(-198.59 -290.29)"/><path class="cls-2" d="M254.13,339c1.58,5.67,1.08,11.69,4.44,16.78,1.77,2.67,6.1.17,4.32-2.52-3.06-4.63-2.49-10.41-3.94-15.59-.86-3.09-5.68-1.78-4.82,1.33Z" transform="translate(-198.59 -290.29)"/><path class="cls-2" d="M298.47,345a91.35,91.35,0,0,0,23.7,2.52c3.21-.08,3.22-5.08,0-5a85.92,85.92,0,0,1-22.37-2.34c-3.13-.74-4.46,4.08-1.33,4.82Z" transform="translate(-198.59 -290.29)"/><path class="cls-2" d="M308.86,511.67c-.46,5.2-20.11,2.65-23.16,2.11-8.12-1.46-15.28-5.31-22.39-9.32-3.13-1.77-6.42-3.39-9.4-5.4-3.85-2.61-5.81-6.15-7.63-10.26a76.36,76.36,0,0,0-5.46-10.41c-2-3.17-3.58-6.37-3.46-10.25.14-4.69,2.83-9.66,8.15-9.95,4.05-.22,7.53,2.79,11.58,2.72,3.55-.07,4.26-3.57,2.9-6.54-2.4-5.27-8.62-5.17-13.53-5.06-4.35.09-9.25.69-13.53-.39-6.84-1.72-8.09-8.09-4.78-13.78a1.88,1.88,0,0,0-3.24-1.89c-2.66,4.58-3.79,10.58-.23,15.05s9.61,4.88,14.83,4.9c3.88,0,8-.63,11.91-.13a5.48,5.48,0,0,1,4.5,2.49c2.42,3.23-.42,1.4-2.49.77a41.33,41.33,0,0,0-5.75-1.73,11.94,11.94,0,0,0-12.35,6.48,17.4,17.4,0,0,0-.55,14c1.09,2.88,2.95,5.26,4.53,7.88,2.09,3.46,3.32,7.32,5.17,10.9,3.28,6.35,8.65,9.18,14.65,12.58,6.25,3.54,12.55,7.29,19.43,9.48A62.45,62.45,0,0,0,303.45,518c4.24-.42,8.73-1.38,9.16-6.32.21-2.4-3.54-2.39-3.75,0Z" transform="translate(-198.59 -290.29)"/><path class="cls-2" d="M227.85,433.29c2.07-4.94,3.71-10.42,6.48-15,2.51-4.15,7.21-7.24,10.88-10.31,7.83-6.57,22.06-16.72,29.35-3.66,5,9.05,3.94,21.77-.05,30.93-3.61,8.3-12.32,14.62-12.46,24.17a1.89,1.89,0,0,0,2.82,1.62,49.83,49.83,0,0,0,15.55-15.51,45.37,45.37,0,0,0,6.1-14.93c.85-3.7,1.92-3.75,5.22-3.92,4-.21,7.09-4,3.3-7-1.45-1.15-3.53-1.26-5.07-2.26a6.78,6.78,0,0,1-2.81-8.65c2-4.32,6.87-8.35,10.82-11,5.39-3.57,10.4-4.07,15.23.67s5,10.1,1.35,15.47c-2.11,3.14-5.62,8.25-9.68,9-2.48.45-4.86-2.22-7.08-.67a4.13,4.13,0,0,0-1.44,3.71,7.67,7.67,0,0,0,1.48,3.46c1.88,3.19,2.83,5.81,2.08,9.45-.82,4-2.85,7.69-3.6,11.76a44.52,44.52,0,0,0-.27,12.47c.84,8.46,2,17.21,6,24.81,1.91,3.64,4.3,7,6.16,10.69,1.15,2.26,2.77,5.33,2.77,7.95,0,2-.91,2.45-1.82,4.2-1.13,2.13,2.11,4,3.23,1.89,1.51-2.87,2.81-3,2.33-6.61-.57-4.29-2.63-8.31-4.76-12-2.24-3.91-4.87-7.66-6.48-11.9-1.84-4.83-2.49-10.08-3.18-15.18-.75-5.62-1.33-11.42,0-17,1.22-5,4-9.68,3.82-15a12,12,0,0,0-1-4.42c-.44-1-4.09-5.59-4.38-5.26s3.12,1.38,3.42,1.43a9.86,9.86,0,0,0,5-.63C313.51,423.7,320.28,414.6,321,408c.74-6.82-4.95-14.1-11.19-16.49-7.65-2.91-15.71,4-20.78,8.93s-9.16,10.39-4.18,17.17a12,12,0,0,0,4.73,3.82c.31.14,1.94.5,2,.74.45,1.24-2.8.55-3.46.65-3.33.46-4.31,3-5.05,5.92-3.06,12.2-9.35,22.22-20.11,29.1l2.82,1.62c.11-7.3,6.67-12.68,10.12-18.63a42.5,42.5,0,0,0,5.24-15.8c1.2-9.23,0-23.28-9-28.68-9.39-5.64-19.62.88-26.95,6.78-4.38,3.52-9.6,7.15-13,11.63-3.76,4.91-5.62,12-8,17.59-.93,2.22,2.7,3.19,3.62,1Z" transform="translate(-198.59 -290.29)"/><path class="cls-2" d="M304.92,465.13c5.54,18.29,13.51,38.74,29.31,50.77,3.21,2.44,6.86,3.09,10.79,3.59,4.38.56,10.28,2,14.52.26,7.07-3,10.38-15.11,11.62-21.85,1.91-10.4-1.23-20-1.31-30.36-.05-6.38-.79-15.63-8.73-17-3.35-.59-5.73,1.11-8.55,2.65-.16.09-2.52,1.57-2.88,1.36-1.3-.76,2.38-3,2.71-3.29a23.85,23.85,0,0,0,4.16-3.87c5.61-6.88,6.54-16.18,5.43-24.69-1.05-8-2.48-18.74-10-23.36-7.17-4.38-17.31-3.68-25.33-3.35-2.4.09-2.42,3.84,0,3.75,6.41-.27,13.85-.74,20,1.31,8.47,2.8,9.95,12,11.25,19.77,1.46,8.74,1.17,19.06-5.61,25.67-2.25,2.19-10.46,6.72-6,11,4.18,4,10.19-4.16,14.48-3.2,5.53,1.23,5.3,9.09,5.32,13.31a69.5,69.5,0,0,0,1,10.87c1.59,9.84,1.45,19.23-2.58,28.52-2.11,4.85-4.71,10.07-10.85,9.72-4.27-.24-9-.5-13.1-1.71-4.75-1.41-8.36-6-11.51-9.59a82.9,82.9,0,0,1-8.72-12.16c-5.35-9.06-8.75-19-11.79-29.06-.7-2.3-4.32-1.32-3.61,1Z" transform="translate(-198.59 -290.29)"/><path class="cls-2" d="M308.23,463c-1.8-6.5,3.48-4.22,6.79-6.27,2.23-1.39,3.59-3.85,4.79-6.09a1.89,1.89,0,0,0-1.12-2.75,27.33,27.33,0,0,0-4.13-.46c-1.83,0-2.71.76-3.46-1.11-.86-2.15,1.7-4.27,3-5.92,3.87-5.08,4.86-10.64,7.3-16.41l-3.43-.45a143.09,143.09,0,0,0,10.19,27l1.62-2.83c-2.05,0-4.3-.28-6.23.5a2,2,0,0,0-1.37,1.81c-.22,3.6,4.57,7.43,7.84,7.83,1.32.16,2.22-.46,3.43-.4,2.3.1,2.94,1.1,4.46,2.52a18.2,18.2,0,0,0,6.76,3.84,1.9,1.9,0,0,0,2.31-2.31c-1-4.55-3.65-8.11-5.91-12.1-2.6-4.57-4.74-9.25-7.53-13.72a63.57,63.57,0,0,1-6.3-14.78c-2-6.81-.64-14,.61-20.84.43-2.36-3.19-3.37-3.62-1-1.09,6-2.21,12.11-1.49,18.22.65,5.43,3.14,10.4,5.09,15.46,1.83,4.74,5.17,8.8,7.39,13.38,2.61,5.38,6.83,10.5,8.14,16.37l2.31-2.31a15.09,15.09,0,0,1-6.07-3.86c-1.09-1.09-1.73-2.24-3.31-2.74-1.13-.35-2.1.07-3.18.07-1.77,0-7.37-.53-7.18-3.64l-1.38,1.81c1.48-.6,3.66-.36,5.23-.37a1.9,1.9,0,0,0,1.62-2.82,137.38,137.38,0,0,1-9.81-26.11c-.38-1.42-2.77-2-3.43-.44-1.83,4.33-2.66,9.1-5,13.18-1.81,3.09-4.78,5.58-6.1,9-.67,1.72-1,3.6.17,5.18,2.21,3,7.49,1.6,10.55,2.08l-1.12-2.75c-1.69,3.14-3.13,4.79-6.76,5.64-1.28.3-2.52.25-3.66,1-2.92,2-2.36,5.65-1.55,8.58.65,2.32,4.27,1.33,3.62-1Z" transform="translate(-198.59 -290.29)"/><path class="cls-2" d="M322.49,414.77c0,.38-.69.67-1,.91a5.29,5.29,0,0,0-1.31,1.59,14.47,14.47,0,0,0-.89,2.2,23.83,23.83,0,0,1-.72,3c-1.08,2.15,2.16,4.05,3.24,1.89.89-1.79.62-4.24,2-5.76,1.23-1.32,2.34-1.75,2.36-3.8,0-2.41-3.72-2.41-3.75,0Z" transform="translate(-198.59 -290.29)"/><path class="cls-2" d="M377.67,421.66c.19-7.1.15-13.15-2.46-19.85-.87-2.22-4.5-1.26-3.62,1,2.47,6.31,2.5,12.18,2.33,18.85-.06,2.41,3.69,2.41,3.75,0Z" transform="translate(-198.59 -290.29)"/><path class="cls-2" d="M371.55,396.42a12.88,12.88,0,0,0-3.34-3.16,22.45,22.45,0,0,1-4.14-4.18,22.22,22.22,0,0,0-8.16-6c-2.19-.94-4.1,2.29-1.89,3.24a19.64,19.64,0,0,1,7.4,5.38,29.14,29.14,0,0,0,2.95,3.33c1.29,1.12,2.94,1.81,3.95,3.24,1.37,2,4.62.09,3.23-1.89Z" transform="translate(-198.59 -290.29)"/><path class="cls-2" d="M351.09,379.71c-3.2-.93-6.39-.45-9.67-.63-2.82-.15-5.41-.64-8,.82-5.66,3.19-7.3,12.53-8.45,18.29-.47,2.35,3.14,3.36,3.61,1,1-4.94,2.37-13.56,7.18-15.86,2.41-1.14,4.36-.5,7-.46s4.94-.24,7.38.47,3.31-2.95,1-3.62Z" transform="translate(-198.59 -290.29)"/><path class="cls-2" d="M337.65,381.48c3.09-4.24,6.94-7.82,12.33-8.68,2.38-.37,1.37-4-1-3.61-6.41,1-10.94,5.4-14.58,10.4-1.42,2,1.83,3.82,3.24,1.89Z" transform="translate(-198.59 -290.29)"/></g></svg>