<svg xmlns="http://www.w3.org/2000/svg" viewBox="0 0 105.71 140.68"><defs><style>.cls-1{fill:#b41917;}.cls-2{fill:#1d1d1b;}</style></defs><title>heartalt4</title><g id="Layer_2" data-name="Layer 2"><path class="cls-1" d="M302.75,511.14a86.67,86.67,0,0,0-39.2,1.15c-1.7.45-2.58,3-1.1,4.18,4.66,3.87,10.16,10.45,16.6,11.14,7.59.81,13.36-4.75,19.91-7.48,2.07-.86,2.65-4.19,0-4.82a89.49,89.49,0,0,0-28.25-2.2c-2.7.22-3.52,4.13-.66,4.91,6,1.65,12,1.61,18.12,1.36l-1.26-4.66-6.07,3.74-3,1.87a2.79,2.79,0,0,0-.95-2.92l-1.49,3.68c1.88-.34,21.83-4.4,22-3.72.84,3.11,5.66,1.79,4.82-1.32-1.08-4-4.35-4-7.91-3.42-6.77,1.12-13.51,2.42-20.26,3.63a2.53,2.53,0,0,0-1.5,3.68c1.45,2.37,2.84,5.89,6.17,5.36,3.55-.57,7.71-4.4,10.73-6.26,2-1.25,1.3-4.76-1.26-4.66-5.69.23-11.26.34-16.79-1.18l-.67,4.91a85.25,85.25,0,0,1,26.92,2v-4.82c-5,2.08-9.5,6-14.82,7.12-6.55,1.39-12.24-5.68-16.83-9.49l-1.1,4.17A80.85,80.85,0,0,1,301.42,516c3.14.63,4.48-4.19,1.33-4.82Z" transform="translate(-234.52 -391.89)"/><path class="cls-1" d="M282.67,526.93c3.26-1,7.09-1.41,8.62-5a4.89,4.89,0,0,0-3.58-6.81,4.11,4.11,0,0,0-3.86,1.56c-.83,1-.86,2.42-1.62,3.42s-2.13,1.43-3.13,2a9.88,9.88,0,0,0-3.29,3c-1.8,2.68,2.53,5.19,4.32,2.52,1.42-2.13,4.61-2.52,6.16-4.73.57-.8,2.22-3.65.22-2.74a14.43,14.43,0,0,1-2.23,1.09c-1,.28-2,.46-2.94.76-3.07.94-1.76,5.77,1.33,4.82Z" transform="translate(-234.52 -391.89)"/><path class="cls-1" d="M263,517.46a178.76,178.76,0,0,1,31.49-7.22c3.92-.49,8-.3,11.68-2,3.84-1.8,6.84-4.85,9.44-8.11a2.54,2.54,0,0,0-1.1-4.18c-2.45-.85-6.46-.39-6,3.18s4.48,2.94,6.57,1.39a2.54,2.54,0,0,0-.6-4.57c-7.1-2.54-13.65,2-20.75,2.68-3.63.35-7.24,1-10.86,1.32a12.57,12.57,0,0,1-6.32-.61c-1.46-.65-2.6-1.82-4.12-2.41-3.54-1.38-8.73-.52-12.34.42-3.83,1-6.1,3.2-5.54,7.33.52,3.85,3.06,8.69,7,9.93,2.65.83,5.15-.27,7.47-1.47a39.84,39.84,0,0,1,9.88-3.77c3.44-.77,22.52-4.05,21,2.16-.65,2.64,3.29,4.57,4.57,1.93l5.77-11.89-4.57-1.93c-1.11,4.37-4.78,6.64-8.42,8.84l3.42,3.42,4.19-7a2.53,2.53,0,0,0-2.82-3.67l-16.77,5.43c-2.59.83-2.27,5,.67,4.91l8.6-.29-.66-4.91c-5.19.89-11.42,2-15.83-1.62-2.54-2.06-4.37-5-7.58-6.13-5.18-1.86-11.1,2.21-10,7.91.88,4.64,7.05,7.62,10.1,3,1.46-2.24.69-4.46-1.29-6.09a15.46,15.46,0,0,0-3.63-1.83c-2.27-1.06-4.1-2.72-6.23-4-1.8-1.09-3.53.38-3.77,2.16-.92,6.9,15.05,7.53,19.21,8.34,3.14.62,4.49-4.2,1.33-4.82-2.1-.41-15.68-2.43-15.54-3.52l-3.76,2.16c1.76,1.07,7,5.69,8.68,4.7a3,3,0,0,0-.26-1.55l1.8-1.82c1.13-.34,2.46.55,3.32,1.13a35.61,35.61,0,0,1,3.69,3.58c5.89,5.44,13.74,4.55,21.1,3.29,2.79-.48,2.12-5-.67-4.91l-8.6.29.66,4.91,16.77-5.43-2.83-3.67-4.18,7a2.52,2.52,0,0,0,3.42,3.42c4.79-2.9,9.26-6.13,10.72-11.83.67-2.64-3.3-4.55-4.57-1.92l-5.77,11.88,4.57,1.93c3.91-15.71-26.89-9.1-33.68-6.3-2.62,1.08-6.4,4.52-9.13,2.51a8.06,8.06,0,0,1-2.15-3.91c-.26-2-.11-2.25,1.66-3a18.35,18.35,0,0,1,6.44-.81c3.07,0,4.64,1.73,7.3,2.84,5.42,2.23,12.19,0,17.76-.5a49.6,49.6,0,0,0,7.86-1.12c4.39-1.13,7.65-3.5,12.37-1.81l-.6-4.57.6,4.57-1.1-4.18c-3.21,4-6.64,7.38-11.95,8.07-4,.51-7.91.83-11.85,1.47a188.84,188.84,0,0,0-26.61,6.52c-3.06,1-1.75,5.79,1.33,4.82Z" transform="translate(-234.52 -391.89)"/><path class="cls-1" d="M315.11,491.84c-7.14-1.47-12.86,1.45-19.43,3.76-4,1.43-7.53,2-11.72.92-3.72-.94-7.17-2.57-11-3.19-5.86-.94-15.24-1.27-20.25,2.74-5.27,4.22,1.83,9.43,2.54,14,.5,3.17,5.31,1.82,4.82-1.33-.43-2.82-1.69-4.51-3.06-6.91-.9-1.56-1.37-1.4.2-2.51,1.1-.79,3-.94,4.32-1.16,7.33-1.18,13.45.9,20.33,2.91a23,23,0,0,0,14.45-.45c5.69-1.94,11.23-5.28,17.45-4,3.14.64,4.48-4.18,1.33-4.82Z" transform="translate(-234.52 -391.89)"/><path class="cls-1" d="M266,507.52a3.69,3.69,0,0,1-3.25-3.52c-.06-3.21-5.06-3.22-5,0a8.74,8.74,0,0,0,8.25,8.52,2.5,2.5,0,0,0,0-5Z" transform="translate(-234.52 -391.89)"/><path class="cls-1" d="M328.29,468.09c-7.33,3.35-15.58.08-23.26.52-7.91.45-14.84,5.46-22.79,2.39-6.7-2.58-11.82-6.11-19.32-5.32-3.77.39-7.52,1.13-11.26,1.73-3.34.54-8.34.3-11.09,2.59-4.23,3.52-.21,10.52,1.29,14.48,1.92,5.06,3.85,11.44,9.24,13.81,6.28,2.77,13.77-1.11,20.1-2,8.5-1.17,16.93-.35,25.45-.07,13.37.44,31.55-4.37,31.41-21,0-1.49-1.61-3-3.17-2.41a32,32,0,0,1-20.17,1.19l1.11,4.18a12.84,12.84,0,0,1,11.5-3.85l-.6-4.57c-8.82,6.73-22.86-3.06-29.84,8.3a2.52,2.52,0,0,0,2.16,3.76,89.69,89.69,0,0,0,9.52-1.19,33.19,33.19,0,0,0,5.23-1.15c4.13-1.52-1.62-.54-2.54-.4-7.21,1.13-14.46,3.54-21.56,5.27a2.52,2.52,0,0,0-1.49,3.68c2,3,5.11,3.31,8.43,2.43,6.37-1.67,12.67-4.86,18.82-7.24l-1.93-4.57a170.68,170.68,0,0,0-19.73,11c-2.69,1.74-.27,6,2.52,4.32l18-10.63-3-3.92L281.09,503a2.51,2.51,0,0,0,3,3.93,64.3,64.3,0,0,0,22.16-18.73c1.25-1.65-.49-3.63-2.16-3.76A32.21,32.21,0,0,0,277,495.71c-1.27,1.49-.58,4.47,1.77,4.27,13.58-1.17,19.16-15.2,30.68-20.41l-3.67-2.83a30.27,30.27,0,0,1-6.06,12.68,2.5,2.5,0,0,0,3.53,3.53,108.06,108.06,0,0,0,11.83-11.41l-3.93-3-6.64,12.81a2.51,2.51,0,0,0,3.93,3l13-12.6c2.07-2-.57-5.3-3-3.93a27.83,27.83,0,0,0-12.55,14.54c-1,2.61,3.39,4.49,4.57,1.93l3.7-8L312,487.54q-1-3.85-4-2.88c-1.07.09-2.15.15-3.23.19a39.39,39.39,0,0,1-5-.06c-5-.45-10-2.45-11.82-7.54-.86-2.47-5.26-2.32-4.91.66l.43,3.61,3.17-2.41a36.43,36.43,0,0,1-15.12-7.31l-3,3.92,7.12,3.63c.65.32,9.23,4.5,7.09,5.89l3,.39a134.94,134.94,0,0,1-12.92-16.08L269.46,473a61.66,61.66,0,0,1,10.12,6.82l-.39-3A112.42,112.42,0,0,0,269,498.16l4.92.66a102.75,102.75,0,0,0-3.07-18.59l-4.18,2.43a20.38,20.38,0,0,1,6.09,9,2.5,2.5,0,0,0,4.82-1.33,140.8,140.8,0,0,0-4.68-20.17c-.95-3.06-5.77-1.76-4.82,1.33q3.36,10.91,7.76,21.43l4.57-1.93A224.2,224.2,0,0,0,268.43,470a2.52,2.52,0,0,0-4.66,1.26,22.47,22.47,0,0,0,1.5,8.68c1,3.14,3.14,8.22-.57,10.61l3.68,1.49-6.73-21.92c-.95-3.06-5.74-1.77-4.83,1.33A45.17,45.17,0,0,1,258.46,489c-.28,2.79,4.36,3.42,4.91.66a64.23,64.23,0,0,0,1.1-17.72h-5l2,18.85,3.77-2.16a18.48,18.48,0,0,1-7.23-11.9c-.53-2.82-4.9-2.09-4.91.67a46.81,46.81,0,0,0,3.6,18.47l4.57-1.92a68.82,68.82,0,0,1-6.22-23c-.24-2.56-4.5-3.67-4.91-.66a30.2,30.2,0,0,0,3.34,19.1c1.12,2.1,4.9,1.25,4.66-1.26a66.36,66.36,0,0,0-2.94-14.36l-3.68,2.82a10.8,10.8,0,0,1,5,10.69l4.91.67-1.86-14.19-4.27,1.77a31.16,31.16,0,0,1,7.14,16.08l4.66-1.26a17.66,17.66,0,0,1-1.84-5.39l-3.67,2.83,5.21,2.24-.89-3.42c-1.53,3.44-5.66,5.62-9.17,3.45s-4-7.65-4.39-11.4c-.48-4.45-2.39-10.3-8.14-8.34a2.57,2.57,0,0,0-1.83,2.41,28.48,28.48,0,0,0,2.92,13.87c1,2.16,4.95,1.19,4.65-1.26l-.64-5.32-4.66,1.27a44.17,44.17,0,0,1,5,14.9c.47,3.17,5.29,1.82,4.82-1.33a47.89,47.89,0,0,0-5.45-16.1c-1.12-2.05-5-1.26-4.66,1.26l.64,5.32,4.66-1.27a23.21,23.21,0,0,1-2.23-11.34l-1.84,2.41c1.15-.39,3.16,11.62,3.62,12.78a12.7,12.7,0,0,0,6.09,7c5.59,2.63,12.53-.27,15-5.79.5-1.12.45-2.85-.89-3.42l-5.22-2.25a2.54,2.54,0,0,0-3.67,2.82,23.17,23.17,0,0,0,2.34,6.58c1.08,2.08,5,1.25,4.66-1.26a37.09,37.09,0,0,0-8.6-19.62c-1.31-1.56-4.55-.36-4.27,1.77l1.86,14.19c.33,2.47,4.48,3.74,4.91.66a16,16,0,0,0-7.25-16.33,2.52,2.52,0,0,0-3.67,2.82,60.36,60.36,0,0,1,2.76,13l4.66-1.26A24.53,24.53,0,0,1,255,471.6l-4.91-.67A75.91,75.91,0,0,0,257,496.47c1.18,2.53,5.66.7,4.57-1.93a43.15,43.15,0,0,1-3.43-17.14l-4.91.66A23.56,23.56,0,0,0,262.73,493a2.51,2.51,0,0,0,3.76-2.16l-2-18.85c-.33-3.14-5.25-3.24-5,0a59.3,59.3,0,0,1-.93,16.39l4.92.67a48.88,48.88,0,0,0-1.81-18.86l-4.83,1.33,6.74,21.92a2.53,2.53,0,0,0,3.67,1.5c9.13-5.91,1.06-15.7,1.54-23.61l-4.66,1.26a225.49,225.49,0,0,1,11.94,20.94c1.24,2.49,5.67.71,4.57-1.92q-4.41-10.53-7.76-21.43L268,471.46a140.8,140.8,0,0,1,4.68,20.17l4.82-1.33a25.32,25.32,0,0,0-7.38-11.17,2.52,2.52,0,0,0-4.17,2.43,95.15,95.15,0,0,1,2.89,17.26,2.51,2.51,0,0,0,4.91.67,105.76,105.76,0,0,1,9.71-20.2,2.51,2.51,0,0,0-.39-3A68.22,68.22,0,0,0,272,468.65c-2.06-1.12-4.9,1.25-3.42,3.42a143.53,143.53,0,0,0,13.7,17.1,2.54,2.54,0,0,0,3,.39c11.35-7.38-9.75-15.89-14.2-18.15-2.38-1.21-5.36,2-3,3.92a41.8,41.8,0,0,0,17.32,8.6c1.41.32,3.36-.71,3.16-2.41l-.43-3.61-4.91.67c3.91,11.12,18.49,13.35,28.74,10.65,2.58-.68,5.22-3.67,2.37-6-4.43-3.65-7,6.14-8.12,8.55l4.57,1.93A22.5,22.5,0,0,1,321,482.14l-3-3.92-13,12.59,3.93,3L315.5,481c1.25-2.4-1.95-5.25-3.93-3a107.14,107.14,0,0,1-11.82,11.42l3.53,3.53a35.52,35.52,0,0,0,7.35-14.88,2.53,2.53,0,0,0-3.67-2.82C296.72,479.88,290.49,494,278.8,495l1.77,4.27a27.53,27.53,0,0,1,23.55-9.78L302,485.71a58.71,58.71,0,0,1-20.36,16.93l3,3.93L304.8,483c1.78-2.07-.46-5.44-3-3.92l-18,10.62,2.52,4.32a169.21,169.21,0,0,1,19.73-11c2.53-1.2.73-5.6-1.92-4.57-2.48,1-20.07,9.48-21.6,7.1l-1.5,3.68,18-4.4c3.49-.85,9.49-1.22,10.88-5.34.79-2.33-.35-5.34-3-5.8-2-.34-5.09,1.21-7,1.64a78.59,78.59,0,0,1-10.81,1.54l2.16,3.77c3.16-5.14,10.32-3.76,15.37-3.51,4.54.23,9-.17,12.68-3,1.48-1.13,1.78-4.18-.6-4.57a18.1,18.1,0,0,0-16.37,5.13,2.53,2.53,0,0,0,1.1,4.18,36.56,36.56,0,0,0,22.83-1.19l-3.16-2.41c.07,8.82-8.14,14.16-16,15.51-8.28,1.41-16.84-.18-25.18-.16-8.19,0-15.41,1.95-23.37,3.33-6.48,1.13-8.72-3.09-10.87-8.42-1.06-2.62-3.91-7.42-3.67-10.2.27-3,8.21-3,11-3.42,4.89-.78,10-2.16,14.94-.88,6.37,1.67,11.43,6.28,18.31,6.2,3.48,0,6.72-1.19,10-2.18a32.52,32.52,0,0,1,12.54-1.3c7,.57,13.48,1.67,20.1-1.36,2.92-1.33.38-5.64-2.53-4.31Z" transform="translate(-234.52 -391.89)"/><path class="cls-1" d="M291.54,483.68a194.14,194.14,0,0,0-25.85-1.31c-2.69,0-3.55,4.51-.66,4.91,5.67.78,9.85,5.28,15.6,6.08,5.59.78,11.45-.81,16.93-1.78,6.52-1.16,13.4-1.82,19.78-3.55,3.72-1,6.9-3.46,6.46-7.64a2.54,2.54,0,0,0-3.17-2.41c-4.16,1.17-5,5.23-7.16,8.54-3,4.73-7.38,8.44-11.4,12.3a71.12,71.12,0,0,0-9.36,10.78c-3.32,4.78-6.23,9.64-10.84,13.31-2.52,2,1,5.52,3.54,3.54,7.49-6,11.29-15.2,18-22,3.24-3.26,6.74-6.24,9.84-9.64a47.07,47.07,0,0,0,4.15-5.18c1.11-1.66,2.54-6.31,4.57-6.88l-3.16-2.41c.44,4.16-24.39,6.73-28,7.34-5,.83-9.58,1.46-14.23-.9-3.42-1.74-6.28-3.84-10.17-4.37l-.67,4.91a194.14,194.14,0,0,1,25.85,1.31c3.19.38,3.16-4.63,0-5Z" transform="translate(-234.52 -391.89)"/><path class="cls-1" d="M239.94,450.34c7.44-4.64,15.88.29,23.61,1.46,7.14,1.07,14.17-.52,21.17-1.7,8.44-1.42,15.93-.39,24.34.15,7.2.47,15.65-2.17,22,2.1l-1.23-2.16a124.05,124.05,0,0,1-3.25,20.45l4.57-.6a38.94,38.94,0,0,1-3.54-17.53l-4.91.66a33.59,33.59,0,0,0,5.22,12.2,2.54,2.54,0,0,0,4.57-.6,13.88,13.88,0,0,0-3-14.06,2.52,2.52,0,0,0-4.18,1.1q-2.3,10.13-4.62,20.24l4.57-.6c-2.67-5-2.06-10.57-1.43-16h-5a26.79,26.79,0,0,1-5.76,16.18h3.53c-3.47-3.89-7.22-12.72.46-14.56l-3.17-2.41a30.43,30.43,0,0,1-2.95,9.78l4.65,1.26a6,6,0,0,1,4.2-5.73l-1.92-4.57a15.77,15.77,0,0,0-8.29,9.35,2.51,2.51,0,0,0,2.41,3.16c2.82-.2,4.84-1.59,5.33-4.49a2.5,2.5,0,0,0-4.82-1.33,27.19,27.19,0,0,0-1.89,8.71h5l.71-13.81c.12-2.25-2.77-3.2-4.27-1.77a63,63,0,0,0-8.23,9.63c-1.61,2.3,2.14,5.25,3.92,3a94.4,94.4,0,0,0,9.29-13.8,2.51,2.51,0,0,0-3.92-3l-18.49,16.63,3.93,3a153.29,153.29,0,0,1,17.49-20.42c2-1.95-.61-5.51-3-3.92l-27,17.68,3,3.92,18.22-15.73-3.53-3.53a115.24,115.24,0,0,1-27.73,19.58l2.52,4.32L306.18,452c2.53-1.9.1-6.22-2.52-4.32a81,81,0,0,1-28.82,13.28l2.43,4.18,14.2-12.64c2.1-1.87-.68-5.55-3-3.93a193.87,193.87,0,0,1-20,12.08c-2.48,1.31-.78,5.46,1.93,4.57a113.52,113.52,0,0,1,22.38-5l-1.26-4.66a166.74,166.74,0,0,0-29.17,26.55l4.27,1.77c.41-5,11.59-8.76,15.36-10.53a174.3,174.3,0,0,1,17.63-7.08l-2.43-4.18-13.65,13.59c-2,2,.59,5.46,3,3.93l32.07-20.08L315,456.7c-1.69,5.08-9.76,8.07-14.12,10.37-5.15,2.73-10.43,5.19-15.8,7.46l2.53,4.32a181.4,181.4,0,0,0,24.24-14c1.81-1.24,1.43-5-1.26-4.66a100.05,100.05,0,0,0-33.2,9.92c-2.51,1.26-.76,5.5,1.93,4.57a132.3,132.3,0,0,0,34.65-18c2.12-1.54,1-5.54-1.93-4.57l-25.1,8.41,1.92,4.57,12.91-9.38c1.82-1.33,13.82-11.09,14.29-4.39l2.5-2.5-11.12.85c-3.16.24-3.25,5.1,0,5l21-.67-.67-4.91a23.15,23.15,0,0,1-12.22,1.28l.6,4.57,3.15-1.41c2.19-1,1.16-5-1.26-4.66l-28.87,3.77,2.16,3.76c1.58-3.66,5.81-3.85,9.3-4l-1.27-4.66-32.21,17c-2.48,1.31-.78,5.47,1.93,4.57l10.42-3.47-1.92-4.57a85.82,85.82,0,0,1-13.22,7.27l3.42,3.42a46.89,46.89,0,0,1,9.12-12.22,2.52,2.52,0,0,0-1.76-4.27,58.79,58.79,0,0,0-21.83,4.33c-2.9,1.17-1.82,5.81,1.33,4.82a95.16,95.16,0,0,0,20.86-9.39l-3-3.93-17.74,13.83c-2.25,1.75.65,5.42,3,3.93l20.72-13c2.78-1.75.36-5.61-2.53-4.32a63.68,63.68,0,0,0-15,9.49c-2,1.66.15,4.82,2.43,4.18A39.8,39.8,0,0,0,283.06,453a2.5,2.5,0,0,0-3.53-3.54l-14,11.34c-2.24,1.8.64,5.36,3,3.93A234.2,234.2,0,0,1,300,448.81l-2.82-3.67c-3.63,7.05-13.9,8.41-20.58,11.19a124.93,124.93,0,0,0-21.83,11.79l3.42,3.42,4.9-8c1.51-2.47-1.89-4.95-3.93-3l-8.44,8,3.53,3.54a37.24,37.24,0,0,0,7.86-15.12,2.52,2.52,0,0,0-4.17-2.43l-8.7,8.5,4.17,1.1-1.1-4.43c-.58-2.32-4.32-2.45-4.83,0a26.49,26.49,0,0,1-1.81,5.84l4.57.6-1.77-5.39a2.52,2.52,0,0,0-4.82,0l-3,8.3h4.82l-3.09-22.38c-.4-2.91-4.77-2-4.91.66-.23,4.36.66,9.88,5.79,10.73,3.71.6,8.1-.47,11.79-.78l13.45-1.16-.66-4.91a155.69,155.69,0,0,1-27.21,1.24l2.41,1.83c-.76-4.53,5.11-4.07,7.59-3.06a26.31,26.31,0,0,1,5.22,3.18l.6-4.57a70.27,70.27,0,0,1-15.9,2.51l.66,4.91a61.51,61.51,0,0,1,18.26-4L257.66,449a40,40,0,0,1-9.69,6.94c-2.68,1.39-.7,5,1.93,4.57A26.36,26.36,0,0,0,261,455.86l-3-3.93-3.63,3.63a2.52,2.52,0,0,0,2.43,4.18q11.08-3,21.85-6.86c3-1.09,1.71-5.93-1.33-4.83q-10.77,3.92-21.85,6.87l2.44,4.18,3.63-3.63c1.94-1.94-.66-5.62-3-3.93a23.25,23.25,0,0,1-9.94,4.15l1.92,4.57a45.15,45.15,0,0,0,10.71-7.72c1.5-1.45.42-4.4-1.77-4.27a65.76,65.76,0,0,0-19.59,4.13c-2.46.93-2.35,5,.67,4.91a76.27,76.27,0,0,0,17.23-2.69,2.53,2.53,0,0,0,.59-4.57c-4.24-3-9.4-6.16-14.74-4.06a8.39,8.39,0,0,0-5.41,9.59,2.52,2.52,0,0,0,2.41,1.84A163.11,163.11,0,0,0,269.13,456c2.77-.38,2.14-5.15-.67-4.91l-16.33,1.4c-2.08.18-5.25,1.09-7.27.61-2.73-.63-2.55-3.45-2.43-5.8l-4.91.67,3.09,22.37c.37,2.7,4.08,2,4.82,0l3-8.29h-4.82l1.77,5.39c.6,1.83,3.64,2.7,4.57.59a34.58,34.58,0,0,0,2.32-7h-4.83l1.11,4.44a2.53,2.53,0,0,0,4.18,1.11l8.7-8.5-4.18-2.44a31.64,31.64,0,0,1-6.57,12.91c-2.05,2.44,1.16,5.78,3.53,3.54l8.45-8-3.93-3-4.89,8c-1.27,2.07,1.31,4.84,3.42,3.42a120.2,120.2,0,0,1,27.32-13.84c6.5-2.28,13.5-4.38,16.88-10.93.88-1.71-.64-4.57-2.82-3.67A244.46,244.46,0,0,0,266,460.37l3,3.93,14-11.34-3.53-3.54A35.09,35.09,0,0,1,262,460.59l2.44,4.18a59,59,0,0,1,14-8.71l-2.53-4.32-20.72,13,3,3.92L276,454.86c2.26-1.76-.64-5.37-3-3.93a89.7,89.7,0,0,1-19.66,8.89l1.33,4.82a55,55,0,0,1,20.5-4.15l-1.77-4.27a51,51,0,0,0-9.91,13.24c-1.23,2.35,1.18,4.4,3.42,3.42a84.13,84.13,0,0,0,13.22-7.28c2.23-1.49.91-5.51-1.93-4.57l-10.42,3.48,1.93,4.57,32.21-17c2.19-1.15,1.18-4.74-1.26-4.66-5.25.17-11.29,1.07-13.62,6.45-.65,1.49.05,4,2.16,3.76L318,453.89l-1.27-4.66-3.14,1.41c-1.9.86-1.46,4.23.59,4.57a28.14,28.14,0,0,0,14.88-1.28c2.5-.92,2.34-5-.66-4.91l-21,.67v5l11.12-.85a2.54,2.54,0,0,0,2.5-2.5c-.41-5.84-6-8.38-11.27-6.69-3.92,1.27-7.26,4.37-10.55,6.76l-12.9,9.38c-2.12,1.54-1,5.54,1.93,4.57l25.1-8.41-1.93-4.57a127.8,127.8,0,0,1-33.45,17.47l1.93,4.57a92.87,92.87,0,0,1,30.67-9.24l-1.27-4.66a180.78,180.78,0,0,1-24.24,14c-2.95,1.41-.36,5.54,2.53,4.32a199.86,199.86,0,0,0,20.63-10.11c4.75-2.69,9.77-5.24,11.58-10.72a2.52,2.52,0,0,0-3.67-2.82L284,475.28l3,3.93,13.64-13.59c1.7-1.7,0-5-2.43-4.18a183.65,183.65,0,0,0-23.86,10.06c-5.44,2.77-12.24,5.5-12.8,12.37-.17,2.11,2.89,3.36,4.27,1.77A161.21,161.21,0,0,1,294,459.87c1.77-1.26,1.47-5-1.26-4.66a120.31,120.31,0,0,0-23.71,5.17L271,465a194.8,194.8,0,0,0,20-12.08l-3-3.93-14.2,12.64c-2,1.74.14,4.73,2.43,4.18a84.61,84.61,0,0,0,30-13.78l-2.52-4.32L276.08,468.3a2.5,2.5,0,0,0,2.52,4.32,119.54,119.54,0,0,0,28.74-20.37c2.36-2.24-1.12-5.61-3.53-3.53l-18.23,15.73c-2.14,1.85.66,5.48,3,3.92l27-17.68-3-3.92a162.35,162.35,0,0,0-18.27,21.43c-1.72,2.41,1.91,4.84,3.92,3l18.49-16.63-3.92-3a88.8,88.8,0,0,1-8.51,12.79l3.92,3a57.28,57.28,0,0,1,7.46-8.62L311.37,457l-.71,13.81c-.17,3.22,4.8,3.19,5,0a22.76,22.76,0,0,1,1.71-7.38l-4.82-1.33-.51.82,2.41,3.17a10.8,10.8,0,0,1,6-6.36c2.54-1.21.75-5.5-1.93-4.57a11.07,11.07,0,0,0-7.87,10.55c-.09,2.41,3.56,3.5,4.66,1.26a37.56,37.56,0,0,0,3.64-12.3c.21-1.69-1.76-2.74-3.16-2.41a10.76,10.76,0,0,0-8.17,9.25c-.72,5.25,2.15,9.91,5.51,13.66a2.49,2.49,0,0,0,3.53,0,32.27,32.27,0,0,0,7.23-19.71c.09-3.29-4.63-3.11-5,0-.75,6.45-1,12.64,2.12,18.51a2.53,2.53,0,0,0,4.57-.6l4.62-20.23-4.18,1.1a8.94,8.94,0,0,1,1.69,9.2l4.57-.6a29.76,29.76,0,0,1-4.72-11c-.6-2.82-4.84-2.08-4.91.67a44.56,44.56,0,0,0,4.23,20.06c.91,2,4.08,1.38,4.57-.6a132.51,132.51,0,0,0,3.42-21.78,2.53,2.53,0,0,0-1.24-2.16c-6.45-4.31-13.76-2.68-21-2.66-8.71,0-16.83-1.94-25.58-.68-4.6.67-9.15,1.76-13.78,2.23a42.07,42.07,0,0,1-15.69-1.66c-6.81-1.82-13.78-3.2-20.12.76-2.73,1.7-.22,6,2.52,4.32Z" transform="translate(-234.52 -391.89)"/><path class="cls-1" d="M251.31,468.75a20.23,20.23,0,0,1-9.78-11.48l-3.67,2.82,12.84,7.41c2.8,1.61,5.27-2.65,2.53-4.32s-1.27-6.09-4.94-7.38A4.28,4.28,0,0,0,242.9,458a2.55,2.55,0,0,0,1.49,3.67,128.55,128.55,0,0,0,61.55,7.71A130.33,130.33,0,0,0,319.68,467c3.44-.8,8.6-1.35,11.28-3.94,4-3.83-1.3-10.23-5.2-6.23-2.24,2.31,1.29,5.84,3.54,3.53.88-.89-6.42.67-6.66.74q-2.56.69-5.15,1.28-5,1.14-10.12,1.84a123.36,123.36,0,0,1-61.65-7.33l1.5,3.67c-1.26,2.52,1.54,5.8,3.48,7l2.53-4.32-12.85-7.4c-1.8-1-4.4.7-3.67,2.82a25.35,25.35,0,0,0,12.07,14.47c2.83,1.54,5.35-2.77,2.53-4.32Z" transform="translate(-234.52 -391.89)"/></g><g id="Layer_1" data-name="Layer 1"><path class="cls-2" d="M281.52,527.55c-6.6-.52-12.4-7.53-16.59-12.16a94.29,94.29,0,0,1-11.33-15.46,102.14,102.14,0,0,1-12.69-35.19A96.22,96.22,0,0,1,242.37,426c3-12.11,9.5-28.87,24.46-28.89,9,0,12.73,7.39,14.38,15.16,1.81,8.59,3.11,17.32,4.64,26,.51,2.88,4.8,2,4.91-.67.66-15.32,11-31.48,26.41-35.67,3.62-1,8-1.35,11.3.73,4.82,3,5.52,10.37,6,15.47a184.32,184.32,0,0,1,.59,26.48c-.4,9.49-2.14,18.64-6.22,27.25-3.87,8.14-9,15.71-13.68,23.37-8.74,14.15-17.1,28.17-34.34,32.49-3.12.78-1.8,5.61,1.33,4.82,14-3.52,23.91-13.26,31.42-25.22,9-14.38,20.31-29.29,24.34-46,2-8.41,2.36-17.12,2.26-25.73s0-17.72-2.12-26.19c-3.65-14.48-17.75-15.62-29.38-9.29-13.66,7.44-22.29,22.11-22.95,37.52l4.91-.66c-1.65-9.33-2.79-18.92-5.12-28.1-1.61-6.34-4.74-12.34-10.95-15.12-14-6.29-27.1,5.5-32.49,17.55-12.33,27.51-8.92,61.2,5,87.42a101.19,101.19,0,0,0,14.75,20.86c5.25,5.7,11.49,12.43,19.64,13.08,3.21.26,3.2-4.74,0-5Z" transform="translate(-234.52 -391.89)"/></g></svg>